<?xml version="1.0" standalone="no"?>
<!DOCTYPE svg PUBLIC "-//W3C//DTD SVG 1.1//EN" "http://www.w3.org/Graphics/SVG/1.1/DTD/svg11.dtd" >
<svg xmlns="http://www.w3.org/2000/svg">
<metadata>Generated by IcoMoon</metadata>
<defs>
<font id="line-icons" horiz-adv-x="1024">
<font-face units-per-em="1024" ascent="960" descent="-64" />
<missing-glyph horiz-adv-x="1024" />
<glyph unicode="&#x20;" d="" horiz-adv-x="512" />
<glyph unicode="&#x21;" d="M1018 820c-8 4-18 4-24-4l-294-380c-16 16-34 28-54 38l236 454c4 8 0 18-8 22s-18 2-22-8l-238-454c-30 12-64 18-100 18-34 0-68-6-98-18l-240 462c-4 8-14 12-24 8-8-6-10-16-6-24l238-460c-20-10-38-22-54-36l-300 388c-6 6-16 8-24 2-6-6-8-16-2-24l300-390c-46-50-74-118-74-192 0-158 128-284 284-284 158 0 284 126 284 284 0 74-28 140-74 190l296 384c6 6 4 18-2 24zM514-28c-138 0-250 112-250 250s112 250 250 250c36 0 70-8 100-20 0 0 0-2 0-2 2 0 4 0 4 0 86-40 146-128 146-228 0-138-112-250-250-250zM564 292l-30 64c-4 8-12 12-22 12-8 0-16-4-20-12l-32-64-72-12c-8 0-16-6-18-16-2-8 0-16 6-22l52-50-12-72c-2-8 2-18 8-22 8-6 18-6 24-2l64 34 64-34c4-2 6-2 10-2 6 0 10 0 14 4 8 4 12 14 10 22l-12 72 50 50c6 6 10 14 6 22-2 10-10 16-18 16zM568 210c-4-4-6-10-6-16l10-58-52 28c-4 2-10 2-16 0l-52-28 10 58c2 6 0 12-4 16l-42 40 58 8c6 2 10 4 12 10l26 52 26-52c2-6 8-8 14-10l58-8z" />
<glyph unicode="&#x2b;" d="M954 836c-4 4-10 6-14 4-14-2-26-2-38-4-52-2-102 0-148 8-150 28-228 110-230 110-2 4-8 6-12 6v0c-4 0-10-2-12-6-2 0-116-118-336-118-26 0-52 2-80 4-4 2-10 0-12-4-4-2-6-8-6-12v-422c-2-36 18-108 68-184 22-32 46-64 74-92 80-82 184-146 308-190 2 0 4 0 6 0s4 0 6 2c412 174 430 450 430 462v424c0 4-2 10-4 12zM522-28c-116 40-214 100-288 178-28 26-50 56-70 86-50 74-66 140-64 164v404c22-2 44-2 64-2 196 0 312 86 348 118 28-26 108-86 236-108 48-10 102-12 156-10 8 2 14 2 20 2v-402c0-4-18-264-402-430zM738 536l-144 22-66 130c-6 12-24 12-30 0l-64-130-146-22c-6 0-12-4-14-12-2-6 0-12 6-16l104-102-24-144c-2-6 0-14 6-18 2-2 6-2 10-2 2 0 6 0 8 2l130 68 128-68c6-4 14-4 18 0 6 4 8 12 8 18l-26 144 106 102c4 4 6 10 4 16-2 8-8 12-14 12zM612 424c-4-4-6-10-4-16l20-118-106 56c-6 2-12 2-16 0l-108-56 20 118c2 6 0 12-4 16l-86 84 118 18c6 0 12 4 14 8l54 108 52-108c2-4 8-8 14-8l118-18z" />
<glyph unicode="&#x2c;" d="M648 452c6 4 8 10 6 16l-22 132 96 92c4 6 6 12 4 18s-8 10-14 12l-132 18-58 120c-6 12-26 12-32 0l-58-120-132-18c-6-2-12-6-14-12s0-12 4-18l96-92-22-132c-2-6 0-12 6-16 4-2 6-4 10-4s6 2 8 2l118 62 118-62c6-2 12-2 18 2zM520 546c-2 2-6 2-8 2s-6 0-8-2l-96-50 20 106c0 6-2 12-6 16l-76 74 106 16c6 2 10 4 12 10l48 96 48-96c2-6 6-8 12-10l106-16-76-74c-4-4-6-10-6-16l20-106zM1024 288c-2 6-8 10-14 12l-132 18-60 120c-2 6-8 10-14 10-8 0-12-4-16-10l-58-120-132-18c-6-2-12-6-14-12s0-14 4-18l96-92-24-132c0-6 2-12 8-16 4-4 12-4 18-2l118 62 118-62c2 0 4-2 8-2 2 0 6 2 10 4 4 4 8 10 6 16l-22 132 94 92c6 4 8 12 6 18zM894 196c-4-4-6-10-6-16l18-106-94 50c-6 4-12 4-16 0l-96-50 18 106c2 6 0 12-4 16l-78 74 108 16c4 0 10 4 12 10l48 96 48-96c2-6 6-10 12-10l106-16zM426 300l-132 18-58 120c-6 12-26 12-30 0l-60-120-132-18c-6-2-12-6-14-12s0-14 6-18l94-92-22-132c-2-6 2-12 6-16 4-2 8-4 10-4 4 0 6 2 8 2l118 62 118-62c6-2 12-2 18 2s8 10 8 16l-24 132 96 92c4 4 6 12 4 18s-8 10-14 12zM310 196c-4-4-6-10-4-16l18-106-96 50c-2 2-4 2-8 2-2 0-4 0-8-2l-94-50 18 106c0 6-2 12-6 16l-76 74 106 16c6 0 10 4 12 10l48 96 48-96c2-6 8-10 12-10l108-16z" />
<glyph unicode="&#x2d;" d="M606 458c4 0 6 0 10 2 4 4 8 10 6 18l-14 86 62 60c4 4 6 12 4 18s-6 10-14 12l-86 12-38 78c-6 12-26 12-32 0l-38-78-86-12c-6-2-12-6-14-12s0-14 4-18l62-60-14-86c0-8 2-14 6-18 6-4 14-4 18 0l78 40 78-40c2-2 4-2 8-2zM528 534c-2 2-4 2-8 2-2 0-6 0-8-2l-54-28 10 60c2 6 0 12-4 16l-44 42 60 10c6 0 10 4 12 8l28 56 28-56c2-4 6-8 12-8l62-10-44-42c-4-4-6-10-6-16l10-60zM1024 642c-2 6-8 10-14 12l-88 12-38 78c-6 12-24 12-30 0l-38-78-88-12c-6-2-12-6-14-12s0-14 6-18l62-60-16-86c0-8 2-14 8-18 4-4 12-4 18 0l76 40 78-40c2-2 6-2 8-2 4 0 8 0 10 2 6 4 8 10 8 18l-16 86 62 60c6 4 8 12 6 18zM926 582c-4-4-6-10-4-16l10-60-56 28c-2 2-4 2-8 2-2 0-4 0-6-2l-56-28 10 60c2 6 0 12-4 16l-44 42 60 10c6 0 12 4 14 8l26 56 28-56c2-4 8-8 14-8l60-10zM822 336l-86 12-38 78c-4 6-10 10-16 10s-12-4-14-10l-40-78-86-12c-6-2-12-6-14-12s0-12 4-18l64-60-16-86c0-6 2-14 8-18 4-2 12-4 18 0l76 40 78-40c2-2 4-2 8-2s6 0 10 2c4 4 8 12 6 18l-14 86 62 60c4 6 6 12 4 18s-6 10-14 12zM740 264c-4-4-6-10-6-16l10-60-54 28c-4 4-10 4-16 0l-54-28 10 60c2 6 0 12-4 16l-44 44 60 8c6 0 10 4 12 10l28 54 28-54c2-6 6-10 12-10l62-8zM250 464c6 2 8 10 8 16l-16 86 62 60c6 6 8 12 6 18s-8 10-14 12l-86 12-40 78c-6 12-24 12-30 0l-38-78-88-12c-6-2-12-6-14-12s0-12 6-18l62-60-16-86c0-6 2-14 8-18 2-2 6-2 10-2 2 0 6 0 8 2l78 40 76-40c6-4 14-2 18 2zM162 536c-2 2-4 2-6 2-4 0-6 0-8-2l-56-28 10 60c2 6 0 12-4 16l-44 44 60 8c6 0 12 4 14 10l28 54 26-54c2-6 8-10 14-10l60-8-44-44c-4-4-6-10-4-16l10-60zM476 348l-86 12-38 78c-6 12-26 12-32 0l-38-78-86-12c-6-2-12-6-14-12s0-12 4-18l62-60-14-86c-2-6 2-14 6-18 4-2 8-2 10-2 4 0 6 0 8 2l78 40 78-40c6-4 12-4 18 0 4 4 8 12 6 18l-14 86 62 60c4 6 6 12 4 18s-8 10-14 12zM394 276c-4-4-6-10-6-16l10-60-54 28c-2 2-6 2-8 2s-6 0-8-2l-54-28 10 60c0 6 0 12-4 16l-46 42 62 10c6 0 10 4 12 10l28 54 28-54c2-6 6-10 12-10l62-10z" />
<glyph unicode="&#x35;" d="M966 366c-2 2-4 4-6 4 22 20 38 56 38 72-2 80-66 114-100 122 0 0-2 0-4 0h-238c0 10 4 32 12 44 44 80 72 152 72 194-12 134-82 154-112 158-26 2-58-6-64-26 0-2 0-4 0-6-4-170-40-208-84-238-40-26-52-58-82-128-8-20-18-42-30-70-40-94-104-82-124-76-6 10-16 16-28 16h-156c-18 0-34-14-34-32v-410c0-18 16-34 34-34h156c16 0 28 10 32 24 160-30 302-44 422-44 44 0 84 2 122 6 88 8 120 70 120 106 0 24 6 40 16 46 0 0 0 0 2 0 56 48 50 72 32 106-2 4-4 8-4 10-12 26-10 28 10 48 36 30 24 76 6 98-4 4-6 6-8 10zM214-10h-154v408h154v-408zM946 284c-30-28-40-46-20-88 2-4 4-8 6-10 12-24 16-32-24-64-14-8-30-28-30-74 0-16-16-66-90-72-142-14-324-2-538 38v366c36-6 106-2 150 98 12 28 22 52 30 72 28 68 38 90 70 112 50 32 94 78 98 260 6 2 24 8 44 0 26-10 56-40 64-122 0-34-28-102-68-176-8-14-24-56-12-80 4-8 10-12 20-14 0 0 0 0 2 0h246c10-4 68-22 70-88-2-10-18-44-32-50-8-4-12-12-10-18 4-14 10-24 18-32 2-2 4-4 6-8 2 0 24-30 0-50z" />
<glyph unicode="&#x36;" d="M964 940h-156c-16 0-28-10-32-24-216 40-398 52-544 38-88-8-120-70-120-106 0-24-6-40-16-46 0 0 0 0-2 0-56-48-50-72-32-106 2-4 4-8 4-10 12-26 10-28-10-48-36-30-24-76-6-98 4-4 6-6 10-10 0-2 2-4 4-6-22-18-38-54-38-70 2-80 66-114 100-122 0 0 2 0 4 0h238c0-10-4-32-12-44-44-80-72-152-72-194 12-134 82-154 112-158 2 0 6 0 8 0 26 0 52 10 56 26 0 2 0 4 0 6 4 170 40 208 84 238 40 26 52 58 82 128 8 20 18 42 30 70 40 92 102 82 124 76 6-10 16-16 28-16h156c18 0 34 14 34 32v410c0 18-16 34-34 34zM624 418c-12-28-22-52-30-72-28-68-38-90-70-112-50-32-94-78-98-260-6-2-24-8-44 0-26 10-56 40-64 122 0 34 28 102 68 176 8 14 24 56 12 80-4 8-10 12-20 14 0 0 0 0-2 0h-246c-10 4-68 22-70 88 2 10 18 44 32 50 8 4 12 12 10 18-4 14-10 24-18 30-2 4-4 6-6 10-2 0-24 30 0 50 30 28 40 46 20 88-2 4-4 8-6 10-12 24-16 32 24 64 14 8 30 28 30 74 0 16 16 66 90 72 142 14 324 2 538-38v-366c-36 6-106 0-150-98zM964 498h-154v408h154z" />
<glyph unicode="&#x3e;" d="M586 154c-2 20-2 32-4 40 12 18 46 78 50 158v2c2 82-46 132-132 136v0c0 0-2 0-2 0v0c-84-4-132-54-132-136v-2c4-80 38-140 50-158 0-8-2-20-2-40-186-46-216-110-220-118 0-2 0-4 0-6v-76c0-10 6-18 16-18h578c10 0 18 8 18 18v76c0 2-2 4-2 6-2 8-34 72-218 118zM500 456c2 0 4 0 6 0-2 0-4 0-6 0zM514 466c0-2-2-2-2-4 0 2 2 2 2 4zM510 460c0-2-2-2-4-2 2 0 4 2 4 2zM772-30h-544v56c8 12 48 60 206 98 8 2 14 10 14 18 0 32 2 54 2 54 2 4 0 8-2 12 0 2-44 62-48 144v2c0 64 32 98 100 100 0 0 0 0 0 0 66-2 98-36 98-100v0c-4-84-46-146-48-146-2-4-4-8-2-12 0 0 4-22 4-54 0-8 4-16 12-18 158-38 200-88 208-98v-56zM754 960h-460c-42 0-78-34-78-78v-266c0-44 36-78 78-78h296l52-74c2-2 2-2 2-2 6-6 14-10 22-10 6 0 14 4 20 10 0 0 2 0 2 2l52 74h14c42 0 76 34 76 78v266c0 44-34 78-76 78zM796 616c0-24-18-44-42-44h-22c-6 0-12-4-14-8l-52-74-54 74c-2 4-8 8-14 8h-304c-24 0-44 20-44 44v266c0 24 20 44 44 44h460c24 0 42-20 42-44zM748 854h-444c-10 0-16-8-16-18s6-16 16-16h444c10 0 18 6 18 16s-8 18-18 18zM748 672h-444c-10 0-16-6-16-16s6-18 16-18h444c10 0 18 8 18 18s-8 16-18 16zM748 764h-444c-10 0-16-8-16-18 0-8 6-16 16-16h444c10 0 18 8 18 16 0 10-8 18-18 18z" />
<glyph unicode="&#x3f;" d="M830 656c-108 0-194-68-194-152 0-26 8-50 22-72l-20-70c-2-6 0-12 4-18 2-2 8-4 12-4 2 0 2 0 4 0l94 24c24-8 50-12 78-12 106 0 194 68 194 152s-88 152-194 152zM830 386c-26 0-50 4-72 12-4 2-6 2-10 2l-70-20 16 50c2 6 0 12-4 16-12 18-20 38-20 58 0 64 72 118 160 118s160-54 160-118c0-66-72-118-160-118zM760 536c-16 0-28-14-28-30s12-30 28-30c18 0 30 14 30 30s-12 30-30 30zM756 506c0 2 2 4 4 4 4 0 6-2 6-4 0-6-10-6-10 0zM834 536c-16 0-30-14-30-30s14-30 30-30c16 0 30 14 30 30s-14 30-30 30zM830 506c0 2 2 4 4 4s4-2 4-4c0-6-8-6-8 0zM906 536c-16 0-30-14-30-30s14-30 30-30c16 0 30 14 30 30s-14 30-30 30zM902 506c0 2 2 4 4 4s4-2 4-4c0-6-8-6-8 0zM500 674l14-92c0-6 4-12 12-14 0 0 2 0 4 0 4 0 10 2 12 4l68 76c102 4 186 70 186 152 0 84-88 152-194 152-108 0-194-68-194-152 0-28 12-60 28-80 22-24 50-38 64-46zM602 918c88 0 160-54 160-118 0-66-72-118-160-118-6 0-10-2-14-6l-46-52-10 66c-2 6-6 10-10 12-2 0-36 14-60 42-10 10-20 34-20 56 0 64 72 118 160 118zM534 772c16 0 30 14 30 30s-14 30-30 30c-16 0-30-14-30-30s14-30 30-30zM534 806c2 0 4-2 4-4 0-4-8-4-8 0 0 2 2 4 4 4zM606 772c18 0 30 14 30 30s-12 30-30 30c-16 0-28-14-28-30s12-30 28-30zM606 806c4 0 6-2 6-4 0-4-10-6-10 0 0 2 2 4 4 4zM680 772c16 0 28 14 28 30s-12 30-28 30c-18 0-30-14-30-30s12-30 30-30zM680 806c2 0 4-2 4-4 0-4-10-4-10 0 0 2 2 4 6 4zM366 448c2 0 2 0 4 0 4 0 10 2 12 6 4 4 6 10 4 16l-20 72c14 22 22 46 22 70 0 84-88 152-194 152s-194-68-194-152c0-84 88-152 194-152 28 0 54 6 78 14zM266 508c-22-8-46-14-72-14-88 0-160 54-160 118 0 66 72 118 160 118s160-52 160-118c0-20-8-38-20-56-4-6-6-10-4-16l16-50-70 18c-2 0-2 0-4 0s-4 0-6 0zM124 648c-16 0-28-12-28-30 0-16 12-28 28-28 18 0 30 12 30 28 0 18-12 30-30 30zM120 618c0 4 2 6 4 6 4 0 6-2 6-6s-10-4-10 0zM198 648c-16 0-30-12-30-30 0-16 14-28 30-28s30 12 30 28c0 18-14 30-30 30zM194 618c0 4 2 6 4 6s4-2 4-6c0-4-8-4-8 0zM300 618c0 18-14 30-30 30s-30-12-30-30c0-16 14-28 30-28s30 12 30 28zM266 618c0 4 2 6 4 6s4-2 4-6c0-4-8-4-8 0zM580 172c0 14-2 26-2 32 10 16 40 68 42 138 0 0 0 2 0 2 2 72-40 116-116 120v0c0 0-2 0-2 0v0c-76-4-118-48-116-120v-2c2-70 32-122 42-138 0-6-2-18-2-32-160-42-188-98-190-104-2-2-2-4-2-6v-100c0-10 8-18 16-18h504c10 0 18 8 18 18v100c0 2 0 4-2 6-2 6-30 62-190 104zM738-22h-470v78c8 10 44 52 178 86 8 2 14 8 14 16 0 30 2 46 2 48 2 4 0 8-2 12 0 0-38 54-40 124v2c-2 54 26 84 82 86 0 0 0 0 2 0 56-2 84-32 82-86v-2c-2-70-40-124-40-124-2-4-4-8-4-12 0-2 4-18 4-48 0-8 6-14 12-16 136-34 172-76 180-86v-78z" />
<glyph unicode="&#x5d;" d="M986 368c26 34 38 72 38 112 0 128-134 232-300 232-30 0-58-2-84-8-72 52-164 82-264 82-206 0-376-130-376-292 0-48 16-98 48-140l-46-154c-2-6 0-12 4-16s8-6 12-6c2 0 4 0 4 2l196 52c50-18 104-28 158-28 84 0 166 22 232 60 34-12 74-18 116-18s86 8 124 22l154-40c2-2 2-2 4-2 4 0 10 2 12 6 4 4 6 10 4 16zM376 238c-52 0-104 10-152 28-2 0-6 0-10 0l-170-46 38 132c2 6 2 12-2 16-30 38-46 82-46 126 0 142 154 258 342 258 82 0 160-22 222-62-104-36-176-116-176-210 0-84 58-158 144-198-56-28-122-44-190-44zM852 302c-2 0-2 0-4 0s-4 0-6 0c-38-14-78-22-118-22-148 0-268 90-268 200s120 198 268 198c146 0 266-88 266-198 0-34-12-68-36-98-2-6-4-10-2-16l30-98zM762 484c0-18-14-32-32-32s-32 14-32 32c0 18 14 32 32 32s32-14 32-32zM846 484c0-18-14-32-32-32s-34 14-34 32c0 18 16 32 34 32s32-14 32-32zM680 484c0-18-14-32-32-32s-32 14-32 32c0 18 14 32 32 32s32-14 32-32zM400 504c0-18-14-34-32-34s-32 16-32 34c0 18 14 32 32 32s32-14 32-32zM318 504c0-18-14-34-32-34s-32 16-32 34c0 18 14 32 32 32s32-14 32-32z" />
<glyph unicode="&#x60;" d="M1014 622l-224 114v22c0 4-2 10-6 12l-126 124c-2 4-8 6-12 6h-390c-28 0-50-24-50-50v-128l-196-100c-6-2-10-8-10-16v-78c0 0 0 0 0 0v-470c0-34 28-62 62-62h900c34 0 62 28 62 62v548c0 8-4 14-10 16zM990 596v-56l-200-110v268zM256 864h384l116-114v-338l-240-132-276 148v284c0 0 0 0 0 0v138c0 8 8 14 16 14zM206 684v-238l-172 92v58zM990 58c0-14-12-26-28-26h-900c-16 0-28 12-28 26v442l474-256c4-2 10-2 16 0l254 140c2 0 6 2 8 4l204 112z" />
<glyph unicode="&#x62;" d="M424 382c4-44 10-74 20-96 12-26 34-40 64-40s52 14 66 40c10 22 18 54 22 94l28 322c2 30 4 60 4 90 0 52-6 90-20 120-12 22-36 48-92 48-36 0-64-12-86-36s-34-56-34-96c0-28 2-72 6-132zM454 900c16 18 36 26 62 26 32 0 50-10 60-30 12-22 18-58 18-104 0-28-2-56-4-86l-28-322c-4-36-10-64-18-82-8-16-18-22-36-22-16 0-26 6-32 20-10 18-16 46-18 84l-22 314c-4 60-6 104-6 130 0 32 8 56 24 72zM512 166c-32 0-60-12-82-34s-34-50-34-80c0-36 12-66 36-86 22-20 50-30 80-30 32 0 58 10 80 30 24 22 36 50 36 86 0 30-12 58-34 80-24 22-50 34-82 34zM570-8c-16-14-36-22-58-22s-42 8-58 22c-16 14-24 34-24 60 0 22 8 40 24 56s34 24 58 24c22 0 42-8 58-24s24-34 24-56c0-26-8-46-24-60z" />
<glyph unicode="&#x66;" d="M636 720v20c0 42-34 74-74 74h-62c2 20 6 36 16 46s26 16 48 16h76c-2-4-4-8-4-14 2-6 6-10 12-12l38-12 12-40c2-6 8-10 14-10 2 0 2-2 2-2 6 0 12 4 14 8l24 32h40c6 0 12 4 16 10 2 6 2 12-2 18l-24 32 12 38c4 6 2 12-4 18-4 4-10 6-16 4l-38-14-32 24c-6 4-14 6-18 2-6-2-10-8-10-16v-32h-112c-32 0-56-8-72-26-20-18-24-44-26-70h-20c-42 0-76-32-76-74v-26c-156-58-260-208-260-376 0-222 180-402 402-402s402 180 402 402c0 174-114 328-278 382zM722 900c4-4 10-4 16-2l14 4-6-14c0-6 0-10 4-16l8-12-14 2c-6 0-12-4-14-8l-8-12-6 14c0 6-6 10-10 12l-14 4 12 8c4 4 6 8 6 14v14zM404 740c0 22 20 40 42 40h116c22 0 40-18 40-40v-34c0 0 0 0 0 0v-28c-10-6-46-12-98-12-54 0-88 6-100 12zM512-30c-202 0-368 166-368 368 0 150 90 284 226 340v-6c0-10 0-40 134-40 132 0 132 30 132 40v12c144-52 244-190 244-346 0-202-166-368-368-368zM338 588c-28-10-58-30-78-58-22-28-32-60-24-82 4-8 10-12 18-12 0 0 2 0 4 0 10 4 14 14 12 22-4 12 2 32 16 52 18 20 40 38 62 46 8 2 14 12 10 22-2 8-12 12-20 10z" />
<glyph unicode="&#x67;" d="M828 428h-232c-2 12-6 22-12 32l166 166c6 8 6 18 0 24-6 8-18 8-24 0l-166-166c-14 10-30 14-48 14-48 0-86-38-86-86s38-86 86-86c40 0 76 28 84 68h232c8 0 16 8 16 16 0 10-8 18-16 18zM512 360c-30 0-52 24-52 52s22 52 52 52c8 0 16-2 22-6l-32-32c-8-2-12-8-12-16s8-16 16-16h54c-8-20-26-34-48-34zM552 428l6 6c2-2 2-4 4-6zM956 546c68 74 78 186 20 270-4 6-90 116-218 92-40-6-78-26-108-52-24 6-48 12-72 16v70c0 10-8 18-16 18h-98c-10 0-16-8-16-18v-70c-26-4-50-10-74-16-30 26-68 46-108 52-128 24-214-86-218-92-58-84-48-194 20-268-14-44-20-88-20-136 0-120 46-230 122-314-4 0-6-2-10-4l-56-56c-4-4-8-10-8-20 0-16 10-34 28-52 16-16 36-28 54-28 6 0 14 2 18 8l64 62c2 4 4 8 4 12 72-46 156-72 248-72 90 0 174 26 246 70 0-4 0-8 4-12l62-62c4-4 10-8 20-8 0 0 0 0 0 0 16 0 34 10 52 28 24 24 38 54 20 72l-54 54c-2 4-8 6-12 6 78 82 126 194 126 316 0 46-8 92-20 134zM482 926h62v-52c-10 2-22 2-32 2s-20 0-30 0zM74 796c2 2 78 98 186 78 28-4 54-16 76-32-116-48-208-140-256-258-46 62-48 148-6 212zM236 32l-60-60c-6 2-16 6-28 18s-16 22-18 26l54 54c4 2 4 6 6 8 16-14 32-30 50-42-2-2-2-2-4-4zM890 14c-2-4-6-14-18-26s-22-16-26-18l-60 60c-2 2-4 4-6 4 18 14 36 28 54 44 0-4 2-8 4-12zM512-18c-238 0-430 194-430 430 0 44 6 88 18 128 4 4 6 8 4 12 60 168 220 290 408 290 190 0 350-124 408-296 0 0 0-2 0-2 14-42 22-86 22-132 0-236-194-430-430-430zM688 842c22 16 48 28 76 32 108 20 184-76 184-76 44-66 42-152-6-214-46 116-138 210-254 258z" />
<glyph unicode="&#x6e;" d="M818 718c-46 42-98 72-156 94v130c0 8-2 12-8 16-6 2-12 2-16 0-72-40-228-146-234-150s-8-10-8-14c0-6 4-12 8-16 6-4 162-104 234-142 2-2 4-2 8-2 2 0 6 0 8 2 6 4 8 10 8 16v122c50-18 94-46 132-82 170-156 180-420 24-588-76-82-178-130-290-134-110-4-218 36-298 110-82 76-130 180-134 290-4 112 34 218 110 300 6 6 6 18 0 24-8 6-18 6-24-2-82-88-124-202-120-322 4-122 56-232 144-314 84-78 192-120 306-120 6 0 12 0 18 0 120 6 230 56 312 144 170 182 158 468-24 638zM628 680c-58 34-144 88-184 114 40 26 126 84 184 120z" />
<glyph unicode="&#x6f;" d="M842 692c-6 8-16 8-24 2-6-6-6-18 0-24 76-82 114-188 110-300-4-110-52-214-134-290-80-74-186-114-298-110s-214 52-290 134c-156 168-146 432 24 588 38 36 82 64 132 82v-122c0-6 2-12 8-16 2-2 6-2 8-2 4 0 6 0 8 2 72 38 228 138 234 144 4 2 8 8 8 14 0 4-2 10-8 14s-162 110-234 150c-4 2-10 2-16 0-6-4-8-8-8-16v-130c-58-22-110-52-156-94-182-170-194-456-24-638 82-88 192-140 312-144 6 0 12 0 18 0 114 0 222 42 306 120 88 82 140 192 144 314 4 120-38 234-120 322zM396 914c58-36 144-94 184-120-40-26-126-80-184-114z" />
<glyph unicode="&#x72;" d="M316 448l428 484c6 6 6 18-2 24-6 6-18 6-24-2l-438-494c-6-8-6-16 0-24l438-494c2-4 8-6 12-6s8 2 12 4c6 6 6 18 0 24z" />
<glyph unicode="&#x73;" d="M744 460l-438 494c-6 8-18 8-24 2-8-6-8-18-2-24l428-484-426-484c-6-6-6-18 0-24 4-2 8-4 12-4s10 2 12 6l438 494c6 8 6 16 0 24z" />
<glyph unicode="&#x74;" d="M1006 466h-952l270 304c6 6 6 18 0 24-8 6-18 6-24-2l-296-332c0-2 0-2-2-4 0 0 0 0 0-2-2-4-2-8 0-12 0-2 0-2 0-2 2-2 2-2 2-4l294-332c4-4 8-6 14-6 4 0 8 2 10 4 8 6 8 18 2 24l-270 304h952c10 0 18 8 18 18s-8 18-18 18z" />
<glyph unicode="&#x75;" d="M1022 454c0 2 0 2 0 2-2 2-2 2-2 4l-296 332c-6 8-16 8-24 2-6-6-6-18 0-24l270-304h-952c-10 0-18-8-18-18s8-18 18-18h952l-270-304c-6-6-6-18 2-24 2-2 6-4 10-4 6 0 10 2 14 6l294 332c0 2 0 2 2 4 0 0 0 0 0 2 2 4 2 8 0 12z" />
<glyph unicode="&#x78;" d="M916 206c-18 0-38-4-54-12l-92 90c2 2 4 2 4 4 12 22 12 54-2 98 40 50 60 110 60 172 0 34-6 64-16 94l48 50c16-8 34-12 52-12 28 0 54 10 74 24 22 18 34 40 34 64 0 44-42 82-96 86-4 54-42 96-86 96-48 0-88-48-88-108 0-18 4-38 12-54l-28-28c-56 52-136 86-222 86-90 0-170-36-226-90l-32 32c8 16 12 36 12 54 0 60-40 108-88 108-44 0-82-42-86-96-54-4-96-42-96-86 0-48 48-88 108-88 18 0 36 4 52 12l54-54c-10-28-14-58-14-90 0-60 18-118 54-166-16-48-16-80-2-104 0 0 2-2 2-4l-92-90c-16 8-36 12-54 12-60 0-108-40-108-88 0-44 42-82 96-86 4-54 42-96 86-96 0 0 0 0 0 0 24 0 46 12 64 34 14 20 24 46 24 74 0 18-4 36-12 52l112 112c2-24 26-34 70-44l12-2c20-4 40-6 58-6v0h10c20 0 44 4 68 8 2 0 12 2 12 2 28 8 54 16 58 36l108-106c-8-16-12-34-12-52 0-60 40-108 88-108 44 0 82 42 86 96 54 4 96 42 96 86 0 48-48 88-108 88zM800 782c6 6 6 16 2 22-8 14-14 30-14 48 0 42 24 74 54 74 28 0 52-32 52-74v-4c0-4 4-10 6-12 4-4 10-6 14-6h2c42 0 74-24 74-52 0-14-8-26-20-36-26-20-70-22-100-6-6 6-16 4-20-2l-50-48c-10 20-22 40-38 58zM174 734c-4 6-14 8-20 2-14-8-30-12-46-12-42 0-74 24-74 54 0 28 32 52 74 52h4c4 0 10 2 12 6 4 2 6 8 6 12v4c0 42 24 74 52 74 30 0 54-32 54-74 0-18-6-34-14-48-4-6-4-16 2-22l42-42c-14-18-28-38-38-58zM226 110c-6-4-8-14-2-20 8-14 12-30 12-46 0-22-6-40-18-54-10-12-22-20-36-20 0 0 0 0 0 0-28 0-52 32-52 74v4c0 4-2 10-6 12-4 4-10 6-14 6h-2c-42 0-74 24-74 52 0 30 32 54 74 54 18 0 34-6 48-14 6-4 16-4 22 2l104 104c2 0 4 0 6 0 12-6 42-16 66-26zM592 200c0 0-8-2-10-2-22-4-44-8-62-8h-10c-14 0-34 2-52 6l-10 2c-30 6-40 10-44 12v30c0 6-2 12-8 14-24 16-98 42-100 42 0 0-2 0-2 0-2 2-4 2-6 2 0 2-2 2-4 2 0 2-2 4-4 6-4 8-10 30 10 82 2 6 0 12-2 18-36 44-54 98-54 152 0 146 126 264 282 264 82 0 156-34 208-88 0 0 2 0 2-2 0 0 2 0 2-2 44-46 70-106 70-172 0-58-20-112-58-158-4-4-4-10-2-16 16-50 12-70 6-78 0-2-2-4-6-6 0 0 0 0 0 0-2-2-4-4-8-4-2 0-4 0-4 0-30-12-70-26-92-38-2 0-2-2-4-2 0-2 0-2 0-2s0 0 0 0c-2-2-2-2-2-4-2-2-2-6-2-10v-30c-4 0-10-4-34-10zM916 66h-4c-4 0-8-2-12-6-4-2-6-8-6-12v-4c0-42-24-74-52-74-30 0-54 32-54 74 0 16 4 32 12 46 6 6 4 16-2 20l-126 128c16 8 38 16 64 24 0 0 0 0 0 0 2 2 4 2 6 2l104-104c6-6 16-6 22-2 14 8 30 14 48 14 42 0 74-24 74-54 0-28-32-52-74-52zM628 140c-10 2-20-2-22-12-2-2-22-56-92-56s-90 54-92 58c-2 8-12 12-20 10-10-4-14-14-12-22 2-4 30-80 124-80s122 76 124 80c2 8-2 18-10 22zM486 454c0 40-40 74-86 74-48 0-88-46-88-74 0-38 34-62 88-62s86 24 86 62zM400 426c-16 0-54 4-54 28 0 10 24 40 54 40 28 0 52-22 52-40 0-24-36-28-52-28zM720 454c0 28-40 74-86 74-48 0-88-34-88-74 0-38 34-62 88-62s86 24 86 62zM580 454c0 18 24 40 54 40 28 0 52-30 52-40 0-24-36-28-52-28s-54 4-54 28zM464 348c-6-6-8-16-2-24 6-6 18-8 24-2 2 2 36 28 64 0 4-4 8-6 12-6s10 2 12 6 8 18 0 24c-40 40-88 20-110 2z" />
<glyph unicode="&#x7a;" d="M804 668c-4 4-10 6-16 6l-302-70 124 332c2 6 2 12-2 16-2 6-8 8-14 8h-196c-6 0-14-6-16-12l-166-588c0-6 0-12 4-16 6-6 12-6 18-6l282 68-116-270-34 14c-6 2-12 2-16-2-6-4-8-10-8-16l26-182c0-6 4-10 10-12 2-2 4-2 6-2 4 0 8 0 10 2l162 106c4 4 8 10 6 16 0 6-4 12-10 14l-32 14 282 560c4 6 2 14-2 20zM484 86c-2-4-2-8 0-14 2-4 4-8 10-8l20-10-112-72-18 126 24-10c8-4 18 0 22 10l136 316c2 6 0 12-4 18-4 4-10 6-16 6l-288-70 154 548h158l-126-338c-2-6-2-14 2-18s10-6 18-6l296 68z" />
<glyph unicode="&#x7b;" d="M776 756v-102c0-8 8-16 18-16s16 8 16 16v156c0 98-50 150-148 150h-452c-98 0-150-52-150-150v-856c0-10 8-18 18-18s16 8 16 18v802zM210 926h452c78 0 114-36 114-116v-20h-682v20c0 80 38 116 116 116zM794 268c-10 0-18-8-18-18v-294c0-10 8-18 18-18s16 8 16 18v294c0 10-6 18-16 18zM352 826h168c10 0 16 8 16 18 0 18-14 32-32 32h-136c-18 0-34-14-34-32 0-10 8-18 18-18zM924 626h-468c-22 0-40-18-40-40v-20c0 0 0 0 0 0v-236c0-22 18-40 40-40h468c22 0 40 18 40 40v256c0 22-18 40-40 40zM456 592h468c2 0 6-4 6-6v-8l-238-124-242 124v8c0 2 4 6 6 6zM930 330c0-4-4-6-6-6h-468c-2 0-6 2-6 6v208l234-120c4-2 10-2 16 0l230 122z" />
<glyph unicode="&#x7c;" d="M776 756v-102c0-8 6-16 16-16s18 8 18 16v156c0 98-52 150-150 150h-452c-98 0-148-52-148-150v-856c0-10 6-18 16-18s18 8 18 18v802zM208 926h452c78 0 116-36 116-116v-20h-682v20c0 80 36 116 114 116zM792 268c-10 0-16-8-16-18v-294c0-10 6-18 16-18s18 8 18 18v294c0 10-8 18-18 18zM350 826h168c10 0 18 8 18 18 0 18-16 32-34 32h-136c-18 0-32-14-32-32 0-10 6-18 16-18zM900 630h-400c-36 0-66-30-66-66v-214c0-36 30-66 66-66h8l40-58c2 0 2-2 2-2 6-4 12-8 20-8 6 0 14 4 18 8 2 0 2 2 2 2l42 58h268c36 0 66 30 66 66v214c0 36-30 66-66 66zM930 350c0-18-14-32-30-32h-278c-4 0-10-2-14-6l-38-56-40 56c-2 4-8 6-14 6h-16c-18 0-32 14-32 32v214c0 16 14 30 32 30h400c16 0 30-14 30-30v-214zM892 544h-388c-10 0-18-8-18-18 0-8 8-16 18-16h388c8 0 16 8 16 16 0 10-6 18-16 18zM892 400h-388c-10 0-18-8-18-18s8-16 18-16h388c8 0 16 6 16 16s-6 18-16 18zM892 472h-388c-10 0-18-8-18-16 0-10 8-18 18-18h388c8 0 16 8 16 18 0 8-6 16-16 16z" />
<glyph unicode="&#x7d;" d="M900 688c0 2 0 4-2 6 0 2 0 2 0 2 0 2-2 2-2 4 0 0 0 0 0 0l-266 256c0 0-2 0-2 2-2 0-2 0-4 0-2 2-4 2-6 2h-422c-40 0-72-32-72-72v-880c0-40 32-72 72-72h632c40 0 72 32 72 72zM636 902l204-196h-166c-22 0-38 16-38 38zM828-30h-632c-22 0-38 18-38 38v880c0 20 16 38 38 38h406v-182c0-40 32-72 72-72h192v-664c0-20-18-38-38-38zM792 552h-560c-8 0-16-8-16-16 0-10 8-18 16-18h560c10 0 18 8 18 18 0 8-8 16-18 16zM792 444h-560c-8 0-16-8-16-16 0-10 8-18 16-18h560c10 0 18 8 18 18 0 8-8 16-18 16zM536 336h-304c-8 0-16-8-16-18 0-8 8-16 16-16h304c8 0 16 8 16 16 0 10-8 18-16 18z" />
<glyph unicode="&#xe005;" d="M938 850h-348v54c0 30-26 56-56 56h-448c-32 0-56-26-56-56v-622c0-32 24-56 56-56h148v-234c0-30 24-56 56-56h448c30 0 56 26 56 56v124h144c32 0 56 24 56 56v622c0 32-24 56-56 56zM86 260c-12 0-22 10-22 22v622c0 12 10 22 22 22h448c12 0 22-10 22-22v-54h-66c-30 0-56-24-56-56v-124h-144c-32 0-56-24-56-56v-354zM738-30h-448c-12 0-22 10-22 22v622c0 12 10 22 22 22h282v-124c0-30 24-56 56-56h130v-320c0 0 0-2 0-4 0 0 0-2 0-2v-138c0-12-8-22-20-22zM734 490h-106c-12 0-22 10-22 22v102zM960 172c0-12-10-22-22-22h-144v324c0 2-2 4-2 6 0 0 0 0 0 0-2 2-2 4-4 6 0 0 0 0 0 0l-188 180c0 0 0 0 0 0v0c0 0-2 2-2 2-2 0-2 2-4 2s-4 0-6 0h-120v124c0 12 10 22 22 22h448c12 0 22-10 22-22v-622zM716 372h-402c-10 0-18-8-18-16 0-10 8-18 18-18h402c8 0 16 8 16 18 0 8-8 16-16 16zM716 292h-402c-10 0-18-6-18-16s8-18 18-18h402c8 0 16 8 16 18s-8 16-16 16zM522 214h-208c-10 0-18-8-18-18 0-8 8-16 18-16h208c10 0 18 8 18 16 0 10-8 18-18 18z" />
<glyph unicode="&#xe008;" d="M860 960c-8 0-16-8-16-18v-956l-322 230c-6 4-14 4-20 0l-322-230v956c0 10-8 18-16 18-10 0-18-8-18-18v-988c0-8 4-14 10-16 2-2 4-2 8-2 2 0 6 2 8 4l340 240 340-240c4-4 12-6 16-2 6 2 10 8 10 16v988c0 10-8 18-18 18zM386 496l-24-140c0-6 2-12 8-16 4-4 12-4 18-2l124 66 124-66c2 0 6-2 8-2 4 0 8 2 10 4 6 4 8 10 8 16l-24 140 100 98c4 4 6 10 4 16-2 8-8 12-14 12l-138 20-62 126c-6 12-26 12-32 0l-62-126-138-20c-6 0-12-4-14-12-2-6 0-12 4-16zM448 610c6 2 10 4 14 10l50 102 50-102c4-6 8-8 14-10l114-16-82-80c-4-4-6-10-6-16l20-112-102 52c-2 2-6 2-8 2s-6 0-8-2l-102-52 20 112c0 6-2 12-6 16l-82 80z" />
<glyph unicode="&#xe011;" d="M742 360h-192c-8 10-40 62-40 136 0 44 30 96 60 144s58 94 58 134c0 80-74 176-78 180-4 6-16 8-22 2-8-6-10-16-4-24 0 0 70-90 70-158 0-30-26-72-52-116-32-54-66-108-66-162 0-62 20-110 34-136h-148c-4 0-10-2-12-6-4-4-4-10-4-14l10-58c2-6 8-12 16-12l50-320c2-8 10-14 18-14h234c8 0 16 6 16 14l52 322c4 2 6 6 6 10l12 58c0 4 0 10-4 14s-8 6-14 6zM660-30h-206l-50 320c-2 8-8 12-16 14l-4 22h338l-4-24c-4-4-8-8-8-12zM780 668c-2 6-6 10-10 12-16 8-28 18-38 28-16 12-30 26-56 28-30 2-58-16-66-46-2-2-2-2-2-4s0-2 0-4c-2-2-2-4-2-8 0-16 6-34 16-46 12-14 28-22 46-22 2 0 4 0 6 0 52 0 98 46 100 48 4 2 6 8 6 14zM670 640c-8 0-16 4-22 10s-8 14-8 22c0 2 0 2 0 4 0 0 2 0 2 0 0 2 0 2 0 2 0 2 0 2 0 2 4 14 18 22 32 22 12-2 20-8 34-20 8-6 16-12 24-20-14-10-38-24-62-22zM616 866c0-2 0-6 2-8 4-14 14-26 28-34 8-4 18-6 28-6 4 0 10 0 16 2 48 16 72 70 74 72 2 6 2 12-2 16-2 4-8 8-12 8-16 2-28 6-40 10-16 6-32 12-54 6-26-8-42-32-42-60 2 0 2-2 2-4 0 0 0-2 0-2zM666 900c10 2 18 0 32-6 8-2 14-4 22-8-8-12-22-28-40-32-6-2-12-2-18 0-6 4-10 8-12 14 0 2 0 2 0 2s0 2 0 2c0 0 0 2 0 2s0 0 0 0c-2 12 6 22 16 26zM524 474c0-2 0-4 2-6-2 0-2-2 0-4 6-34 36-60 72-60 2 0 4 0 6 0 64 6 112 70 114 74 4 4 4 10 2 16 0 4-4 8-10 10-22 6-36 16-50 26-20 12-40 24-68 22-40-4-70-38-68-78zM558 476c-2 22 14 40 36 42 18 2 30-6 48-18 8-6 20-12 34-20-18-16-46-38-74-42-20 0-40 12-44 32 0 2 0 2 0 4 0 0 0 0 0 2zM436 628c8-4 18-6 28-6 6 0 14 0 22 2 16 6 28 18 36 34 2 2 2 4 4 6l-2 2c0 0 0 0 0 0 2 2 2 4 4 8 6 28-10 58-36 72-24 10-44 6-62 2-14-4-28-6-48-6-6 2-10-2-14-6s-4-10-2-14c0-4 18-70 70-94zM436 714c20 4 28 6 42 0 12-6 18-20 16-34 0-2 0-4 0-4h-2c0-2 0-2 0-4-4-6-10-12-18-14-8-4-16-4-24 0-22 10-36 34-44 52 12 0 22 2 30 4zM446 830c10-6 20-10 30-10 4 0 6 0 10 2 12 2 24 10 32 20 2 2 2 4 2 4v2c0 0 0 0 0 0h2c0 0 0 2 0 2 0 2 2 2 2 4 8 20 0 46-18 60-16 10-32 10-46 10-10-2-20-2-32 2-6 0-12 0-16-4s-6-10-6-16c2-2 6-52 40-76zM460 890c14 0 20 0 26-4 6-6 8-14 6-20 0 0 0 0 0-2 0 0 0 0 0 0s-2-2-2-2c-2-4-6-6-10-8-6 0-10 2-14 4-10 6-16 20-20 30 6 0 10 2 14 2zM384 400c32 0 64 20 76 52 2 2 2 4 2 4 0 2 2 4 2 6 12 44-14 90-58 102-32 8-56-2-82-12-18-8-38-16-64-18-6-2-10-4-14-10-2-4-2-10 0-14s42-88 114-108c8-2 16-2 24-2zM288 504c20 4 36 12 48 16 24 10 40 16 60 10 26-6 42-34 34-60 0 0 0-2 0-2 0-2 0-2-2-4-8-24-34-36-58-28-38 10-66 46-82 68z" />
<glyph unicode="&#xe012;" d="M878 414c2 4 4 8 4 14 0 4-2 8-4 12l-10 8c-6 6-14 6-20 4l-210-112-14 212c0 6 0 10-2 16l60 154c2 8 0 14-6 20l-6 4c-6 6-16 6-22 0l-78-76-114 176c-2 4-6 8-12 8-4 2-10 0-12-4l-10-6c-4-4-6-10-4-16l50-242c-2-10-4-22-4-32l-10-158-210 270c-6 8-16 10-22 4l-10-6c-6-6-8-14-4-22l232-452-12-176c0-78 78-78 116-78s114 0 114 80l-10 168zM624 14c0-34-18-44-80-44s-82 10-82 42l12 180c0 4 0 6-2 10l-176 342 158-204c4-6 12-8 18-6 8 2 12 8 12 16l14 202c0 10 2 20 4 30 0 2 0 4 0 8l-38 182 88-138c2-2 4-4 6-6 8-4 16-2 22 4l48 48-38-104c-2-2-2-6-2-8 2-6 2-10 2-16l16-242c0-4 2-10 8-12 6-4 12-4 16-2l174 92-186-184c-4-4-6-10-4-14zM106 738c0-14 0-28 12-44 8-12 24-18 38-18 12 0 22 2 30 10 22 16 26 48 10 68-26 32-74 36-76 36-6 0-12-2-14-8-4-4-6-10-4-14 4-12 4-22 4-30zM168 734c6-6 4-16-2-22-4-2-8-2-10-2-4 0-8 2-12 4-4 6-4 12-4 24 0 4 0 8 0 12 10-2 22-8 28-16zM160 614c-6 0-12-2-18-4-16-8-22-20-28-30-4-6-8-14-14-20-4-4-6-10-4-16 0-6 4-10 8-12s22-10 46-10c10 0 20 2 28 6 24 10 34 36 24 60-8 16-24 26-42 26zM164 558c-4-2-8-2-14-2-4 0-6 0-10 0 2 4 2 6 4 8 6 10 8 12 12 14 6 4 12 0 14-4 2-6 0-12-6-16zM314 608c4-2 10-4 16-4 18 0 32 12 40 28 12 30-4 64-6 68-2 6-8 8-12 10-6 0-12-2-16-6-6-6-12-8-18-12-10-6-22-12-28-28-8-22 2-46 24-56zM322 650c2 6 4 8 12 12 2 0 4 2 6 2 0-6 0-14-2-20-2-4-8-6-12-4s-6 6-4 10zM920 436c10 0 20 4 28 10 32 24 36 72 38 74 0 6-2 12-6 14-6 4-10 6-16 4-10-2-16-2-24-2h-12c-12 0-26-2-38-10-22-18-26-48-10-70 10-12 24-20 40-20zM910 498c4 2 8 4 18 4h14c0 0 2 0 4 0-4-10-8-22-18-28-6-6-16-4-20 2-6 8-4 16 2 22zM952 370c-6 10-12 22-26 30-22 8-48-2-56-22-6-12-6-24-2-34s12-18 22-24c8-2 18-4 28-4 22 0 40 8 42 8 6 4 8 8 10 14 0 4-2 10-4 14-8 6-10 12-14 18zM904 352c-2 2-4 4-4 4 0 2-2 4 0 8 2 2 4 4 8 4 2 0 2 0 4 0 4-2 6-6 10-14 0 0 2-2 2-4-6 0-14 0-20 2zM788 578c-6 2-12 0-16-4 0-2-38-42-34-88 2-28 26-48 54-48 2 0 4 0 6 0 28 2 50 30 48 58-2 22-14 34-24 46-8 8-16 16-22 28-2 4-8 8-12 8zM812 494c0-12-8-20-18-22s-20 8-22 18c-2 14 6 30 12 42 4-6 8-10 12-14 10-10 14-16 16-24zM790 638c0 6-4 10-8 14-12 4-18 12-24 18-10 8-22 18-42 20-26 2-50-18-52-44-2-14 2-26 10-36 10-10 22-16 34-18 2 0 4 0 6 0 36 0 68 28 72 32s4 10 4 14zM712 626c-4 0-8 2-12 6-2 2-2 6-2 10 0 8 6 14 16 14 0 0 0 0 0 0 8 0 10-4 20-12 2-2 6-6 10-8-10-6-22-10-32-10zM740 714c12 0 24 6 34 14 28 30 26 78 24 80 0 6-2 10-8 14-4 2-10 2-14 0-12-4-20-6-30-6-14-2-28-4-42-18-18-20-18-52 0-70 10-10 22-14 36-14zM728 774c6 4 10 6 22 8 4 0 8 0 14 2-2-12-6-24-14-32-2-2-6-4-10-4s-8 2-12 4c-6 6-6 16 0 22zM550 786c14 0 26 6 36 16 14 14 16 28 16 42 2 10 4 20 8 30 2 6 2 12-2 16-2 6-8 8-12 8 0 0-2 0-6 0-16 0-52-2-76-26-20-20-20-52 0-72 10-8 22-14 36-14zM538 848c8 8 22 12 34 14-2-4-2-8-4-14 0-12-2-18-6-22s-8-6-12-6c-4 0-8 2-12 6-6 6-6 16 0 22zM372 732c10 0 22 4 30 14 16 16 16 44-2 60-12 12-24 14-36 14-6 2-14 2-22 6-6 2-12 0-16-2-4-4-8-8-8-14 0-4 0-42 24-66 8-8 18-12 30-12zM362 786c8 0 12-2 16-4 2-4 2-10 0-12-2-4-6-4-6-4-4 0-6 2-8 2-4 6-6 12-8 20 2-2 4-2 6-2zM378 842c2 0 2 0 4 0 24 0 44 20 44 44 2 18-6 30-14 40-4 6-8 12-12 22-2 6-6 10-12 12-4 0-10 0-14-4-4-2-36-30-38-66-2-24 18-46 42-48zM380 914c2-4 4-6 4-8 8-10 10-12 8-18 0-6-4-12-10-12v-16l-2 16c-6 0-10 6-10 12 0 10 4 18 10 26z" />
<glyph unicode="&#xe01c;" d="M774 636c0 84-44 106-92 112v78c0 6-2 10-6 14v62c0 32-26 58-60 58-32 0-58-26-58-58v-62c-4-4-6-8-6-14v-74h-76v74c0 6-4 10-8 14v62c0 32-26 58-58 58s-58-26-58-58v-62c-4-4-8-8-8-14v-78c0 0 0 0 0 0s0 0 0 0c-50-6-94-28-94-112 0-2 0-4 2-6 2-76 44-338 124-392v-38c0-40 16-66 50-80v-166c0-10 6-18 16-18s18 8 18 18v178c0 8-6 14-12 16-26 8-38 24-38 52v48c0 8-4 14-10 16-56 24-108 248-114 352 32-2 94-6 226-6s194 4 226 6c-6-104-60-336-116-352-8-2-12-10-12-16v-48c0-30-12-44-40-52-8-2-12-10-12-18v-176c0-10 8-18 16-18 10 0 18 8 18 18v164c34 14 52 42 52 82v36c84 48 126 316 128 394 2 2 2 4 2 6zM616 926c14 0 24-10 24-24v-58h-46v58c0 14 10 24 22 24zM586 810h62v-60c-8 2-16 2-26 2h-36zM410 926c14 0 24-10 24-24v-58h-48v58c0 14 10 24 24 24zM380 810h60v-58h-38c-8 0-16 0-22-2zM286 650c2 26 8 42 22 52 2 0 4 2 6 2 0 0 2 2 2 2 12 6 28 8 48 10 0 0 0 0 0 0 10 0 24 2 38 2h220c16 0 30-2 42-2 0 0 0 0 0 0 18-2 32-6 44-10 2-2 4-2 4-4 2 0 2 0 2 0 16-10 22-26 24-52-22-2-80-4-226-4s-204 2-226 4z" />
<glyph unicode="&#xe01f;" d="M996 590l-442 136c-12 4-26 6-42 6s-30-2-42-6l-442-136c-24-6-28-18-28-28 0-8 4-20 28-26l174-54-10-106c0-2 0-4 2-6 2-8 52-162 316-162 114 0 188 30 236 62v-88c0-10 8-18 16-18 10 0 18 8 18 18v118c34 34 46 66 46 70 2 2 2 4 2 6l-8 104 176 56c24 6 28 18 28 26 0 10-4 22-28 28zM510 242c-222 0-276 114-284 134l8 96 236-72c12-4 26-6 42-6s30 2 42 6l192 58v-144c-40-34-112-72-236-72zM792 376c0-4-6-12-12-22v114l6 2zM762 500l-214 64c0 0 0 0 0 0-4 12-18 22-34 22-22 4-40-8-42-24 0-18 14-32 36-34 2 0 4-2 4-2 8 0 14 2 20 6 2 0 2 0 4 0 0 0 2 0 2 0l166-50-160-50c-16-4-48-4-64 0l-252 78c-2 0-4 2-8 2 0 0 0 0 0 0l-166 50 426 132c16 4 48 4 64 0l426-132z" />
<glyph unicode="&#xe026;" d="M846 392c4 0 6 0 8 0 4 0 6 2 8 4 46 36 66 94 58 158 10 20 8 48 2 68-4 12-10 22-18 30 0 56-32 94-68 128-4 6-10 12-16 18-16 18-34 36-60 46-8 4-16 4-20 2-16 12-36 26-58 30-4 2-8 0-10 0 0 0 0 0-2 0-2 2-8 6-14 8-4 2-10 2-16 4-4 0-8 0-12 2-2 0-6 0-8 2-6 2-12 4-18 4-8 0-14-2-20-4-2 0-6-2-6-2-2 0-4 0-4 2-4 2-10 4-16 4-8 2-16 0-22-2-4-2-8-2-10-2 0 0 0 0 0 0h-10c-38 0-80 0-110-24-36-2-56-20-72-36-4 0-6 0-10 0-2 0-4 0-4 0-4 0-8-2-12-4-32-22-54-52-68-90-12-12-26-28-26-58-18-32-24-66-20-96 2-16 12-32 22-46 4-6 8-12 12-18 0-2 0-4 0-6 2-4 4-10 8-16 22-26 54-26 86-26 12 0 26 0 38-2 6 0 10 0 14 4s8 6 14 4c2-26 22-38 34-46 2 0 4-2 6-2 8-26 26-54 76-58 4-14 14-24 24-34 8-8 14-14 18-22 6-12 10-24 16-38 12-36 26-78 72-96 2 0 4 0 6 0 6 0 14 4 16 12 2 4 0 8 0 12 4 2 8 6 8 10 4 10-2 20-12 22-12 4-14 16-14 50 0 4 0 8 0 12 36-14 76-14 114 2 42 16 78 50 96 90zM738 332c-26-8-62-16-104 6 0 2-2 2-2 2-4 10-12 20-18 28-8 12-14 18-12 28s-2 18-12 20c-10 2-18-4-20-12-6-26 8-44 18-58 6-8 12-14 12-22 2-10 2-22 2-34 0-10 0-20 0-30-4 8-6 18-10 30-6 14-10 28-18 42-6 12-16 22-24 30-10 12-18 18-18 28-2 10-8 16-18 16 0 0 0 0 0 0-42 0-52 20-56 38 0 4-4 8-6 10-4 2-10 6-14 8-14 10-20 12-18 28 2 8-4 14-12 18-18 6-34 8-52-4-12 2-24 2-36 2-30 0-48 0-60 12 0 2 0 4 0 4 0 4-2 8-4 12-4 8-8 14-12 22-8 12-16 24-18 34-4 24 2 52 18 78 2 2 2 6 2 10-2 18 6 26 20 38 2 2 4 4 4 6 10 32 26 56 52 76 0 0 0 0 2 0 0 0 2 0 4 0 2-2 6-2 8-2 0 0 0 0 0 0 6 0 10 2 12 4l2 2c16 18 30 32 58 32 0 0 2 0 2 0 4 0 8 2 12 4 22 20 56 20 92 20h10c0 0 0 0 0 0 6 0 14 2 18 2 6 2 8 2 10 2s2 0 4 0c4-2 8-6 16-6s16 2 22 4c2 2 6 2 6 2 2 0 6-2 8-2 4-2 10-4 12-4 6-2 12-2 16-2s8-2 10-2c0 0 2-2 4-2 2-4 8-6 14-8 6-4 10-2 16 0 16-4 34-20 48-30 4-4 10-4 16-2 2 0 2 2 4 2 18-6 32-22 48-38 6-6 10-12 18-18 28-28 58-62 56-112 0-6 4-14 10-16 2-2 6-6 10-16 4-18 4-38-2-48-2-2-2-6-2-10 8-52-8-98-40-128-2 0-4 2-8 2-8 0-16-4-18-12-12-36-44-68-82-84zM700 646c14 2 24 6 32 16 6 8 10 18 12 30 10 4 24 10 24 30 0 6-2 14-10 16-6 4-12 2-18-2-8-6-18-8-28-6-8 2-16 8-18 16s-12 14-20 10c-10-2-14-12-12-20 6-20 20-34 40-38 2-2 4-2 6-2 2-6 0-10-2-12s-8-4-16-4c0 0 0 0-2 0-6 0-12-4-16-12-2-6-8-12-14-16-8-2-12 0-12 0-6 4-12 2-18 0l-4-2c-4-4-6-6-10-6-4-2-6 0-8 0 0 2-2 2-6 4 8 2 14 10 10 20-2 8-10 14-20 12 0 0-2 0-4 0-4 2-6 8-8 12 0 8-6 14-14 14-22 2-22 12-22 16 0 18 18 40 36 40 10 0 16 8 16 18 0 8-8 16-16 16 0 0-2 0-2 0-4 0-10 0-14-2-2 4-6 8-10 10-22 18-62 20-90 18-10-2-16-10-16-20 2-8 10-16 20-14 26 2 54-2 64-10 2 0 2-2 2-2-14-14-24-34-24-52 0-22 10-44 42-50 4-10 10-18 18-22 6-4 12-6 20-6-2-2-4-4-6-6-6-12-26-14-46-18-18-2-36-4-52-14-10 8-24 16-44 16 0 0 0 0-2 0-2 2-4 6-8 10-12 14-30 34-66 26-8-2-14-12-12-20 2-10 12-16 20-14 16 4 22-2 34-16 4-6 10-12 16-16 4-4 8-4 12-4 16 2 22-4 32-12 2-2 6-4 8-6 4-2 8-4 10-4 6 0 10 2 14 6 6 10 26 12 44 16 20 2 44 6 60 20 6-2 12-2 18 0 0 0 2 0 2 0 8 2 14 6 18 8 10-2 20-2 30 2 12 6 24 16 30 26zM364 714c14 2 22 0 26-4 2 0 2 0 4-2s4-4 6-6 4-6 4-8c-2-6 2-10 6-14s10-4 14-4c10 4 18 2 26-2 10-8 16-22 18-32 0-10 8-16 16-16 2 0 2 0 2 0 10 2 16 10 16 20-2 16-12 42-34 56-10 6-22 10-34 10 0 0 0 0 0 0-2 4-6 8-8 10s-2 4-2 6c-4 4-8 8-14 10 0 0-2 2-2 2-12 6-26 10-46 8-10 0-18-8-16-18 0-8 8-16 18-16zM610 510c-14 6-34 6-50 0-10 8-22 14-38 14-6 18-22 32-40 36-14 6-28 4-38-2-2 0-2 0-2 0-4 14-16 24-32 28-8 4-18 4-26 2-6 4-12 6-16 6-4 2-6 2-8 4-8 4-20 2-24-4-6-8-4-20 4-24 6-6 14-8 18-8 6-2 8-2 12-6 6-6 14-6 22-2 0 2 4 2 8 0 6-2 10-4 10-6 2-6 8-10 14-12-4-6 0-14 6-18 8-6 20-4 24 4s12 8 18 6c10-2 20-12 20-22 0-4 2-10 6-14 4-2 8-4 14-2 14 2 26-4 34-12 6-4 14-6 20-2 10 6 30 6 34 2 2-8 8-12 16-12 2 0 2 0 4 0 10 2 14 12 12 20-2 12-10 20-22 24zM832 510c0 10-10 16-18 16s-14-6-16-14c-6 0-20 2-26 2-2 0-2 0-2 0 0 2-2 4-2 4 0 10-2 20-10 28 16 12 28 24 36 40 22 2 38 14 48 36 2 8-2 18-10 22-10 4-20 0-22-10-4-10-10-16-26-14-6 0-12-4-14-10-16-28-42-48-78-58-6-2-12-8-12-14-2-6 0-12 6-16 16-12 32-8 42-4 2 0 4 2 6 2 0-2 0-4 0-6 2-8 4-16 8-24 2-4 8-8 14-8 2 0 6 0 10-2 10 0 18-2 26-2 12 0 22 2 30 10 6 6 10 14 10 22zM856 850c-88 68-234 130-378 104-62-12-126-32-172-56-64-34-170-112-176-262-2-8 0-18 0-28 2-14 4-28 2-42-4-22-32-60-48-78-4-4-10-8-14-12-18-14-42-32-42-66 2-34 28-48 46-58 8-4 16-8 22-12-10-16-14-38-10-56 4-8 8-14 14-18-8-24 8-40 16-50 6-4 10-10 10-14 4-12 0-24-4-36-4-14-8-30-4-46 2-18 16-38 30-48 44-28 90-18 140-10 34 8 68 14 102 10 8-12 12-30 16-54s16-68 16-70c2-6 10-12 16-12 2 0 4 0 6 0 8 2 14 12 12 22 0 0-12 44-16 68-6 28-10 56-28 74-2 4-6 6-10 6-44 6-84-2-120-10-46-8-84-16-114 4-8 6-16 18-18 26 0 8 2 20 6 30 4 16 8 32 4 52-2 14-12 24-18 32-12 12-12 14-6 22 4 6 4 12 2 16-2 6-6 10-12 12-4 0-6 2-6 4-4 10 2 26 10 34 4 4 6 14 2 20-10 18-26 28-42 34-20 10-26 16-28 30 0 14 10 24 28 36 6 6 12 10 18 16 20 20 52 64 58 94 2 20 0 38-2 54 0 8-2 16 0 24 6 132 100 202 158 232 42 22 104 42 162 52 132 24 270-34 352-96 90-68 132-160 124-276-4-78-26-118-64-166l-4-4c-16-20-34-42-50-68-18-26-46-70-42-112 4-30 14-58 26-88 2-8 6-16 8-24 4-12 10-22 14-32 10-22 18-42 20-66 0-10 8-18 18-16 8 0 16 8 16 16-2 30-12 56-22 80-6 10-10 20-12 28-4 10-8 18-10 28-10 26-22 52-24 76-2 32 22 70 36 92 14 24 32 44 48 64l4 4c42 50 68 100 72 186 8 128-38 230-138 304z" />
<glyph unicode="&#xe02a;" d="M758 500c-4 8-12 12-20 12-8 6-20 20-30 30s-60 64-70 70c-4 2-6 4-10 4h-4c-20 0-46 2-58 8-6 6-18 14-38 14-12 0-26-2-40-8 0 0-2-2-2-2-10-6-84-56-86-114-2-10-10-58 14-96 14-18 34-32 60-36 2 0 6 0 8 2 8 2 36 10 56 10 8 0 16 0 18-4 2-22 4-48 14-60 4-6 8-16 8-20-2-8-8-48 4-80 2-12 6-24 6-28 0-6 2-12 6-16 4-2 6-4 10-4 2 0 4 0 6 2 4 0 84 26 110 110 2 8 12 50 14 68 4 10 20 60 24 78 4 12 12 44 0 60zM726 448c-4-18-24-78-24-78 0-2-2-2-2-4 0-8-8-44-14-62-12-44-46-68-68-80-2 6-2 12-4 18-10 26-2 62-2 62 0 2 0 2 0 2 2 18-10 38-16 44-2 6-6 26-6 46 0 0 0 2-2 4-2 10-14 28-50 28-24 0-52-8-64-10-14 2-24 10-32 20-18 28-10 70-10 72 0 0 2 2 2 2 0 34 48 74 68 86 10 4 18 6 26 6s12-4 12-4c0 0 0 0 0 0 2-2 4-2 6-4 22-12 56-14 76-14 10-10 38-38 60-62 16-16 36-38 36-38 4-4 8-4 12-4 0-8 0-20-4-30zM738 904c-6 4-12 8-18 12-2 0-2 2-2 2-6 4-12 6-20 10 0 0 0 2-2 2-6 2-12 6-20 10 0 0 0 0 0 0-8 4-14 6-22 10h-2c-6 2-12 4-18 8h-4c-4 2-10 2-14 0s-6-4-8-8l-24-62c-36 10-72 14-110 14-222 0-402-180-402-402 0-144 74-270 188-342 2-2 4-4 8-4 16-10 34-20 54-28l-24-58c-2-4-2-10 0-14s6-8 10-8c50-18 104-28 158-28v-48h-72c-10 0-18-8-18-16 0-10 8-18 18-18h178c10 0 18 8 18 18 0 8-8 16-18 16h-72v50l24 2c174 20 326 134 392 296 4 8 6 16 10 24 72 208-4 440-188 562zM556 822c2 4 6 10 8 14 6 6 8 10 10 14 0 2 2 4 2 4 92-26 170-88 218-168-2-2-6-2-8-4-2 2-8 4-12 6-20 12-32 16-42 12-4-2-8-6-10-10-4-8-2-14 8-44 2-8 6-18 10-30l-62 58c8 12 12 26 4 38-12 18-32 12-42 8-2-2-6-4-8-4-8 0-14-2-20-2-4-2-6-2-8-2-4 4-10 8-20 10s-18-6-22-10c-4-2-6-2-8-4-4 2-10 2-14 4-2 0-2 0-4 0 0 2-2 2-4 4-12 4-20 0-44-14-6-4-18-10-22-12-2 0-4 0-8 0-2-2-8-2-12-2 0 4-2 10-2 12 4 0 6 0 10 0 12 2 24 2 30 10 4 4 6 10 4 16v2c0 4-2 12-2 16 4 4 6 8 10 16 4 4 8 12 12 16 2 0 6-2 10-2 12-2 32-8 38 10 2 2 2 4 2 6 0 16 0 26-2 32zM260 306c-6-20-10-34-6-44 0-2 0-4 2-8 0 0 2-2 2-4 0 0-2 0-2-2-6-2-20-8-18-28 0-2 0-2 0-4-80 68-132 168-132 282 0-2 2-2 4-4 10-12 26-32 32-40 4-8 10-14 16-20 4-2 8-6 10-8 0-2-2-4-2-6 0-12-2-26 4-38 6-14 16-18 26-22 2 0 4-2 6-2l6-2c10-6 26-12 34-18l2-4c6-4 18-14 18-18s-2-6-2-10zM466 52c-44 0-88 8-130 20l18 42c36-10 72-16 112-18v-44zM474 130c-68 0-134 20-190 54-2 8-8 26-12 34 2 2 6 4 8 4 20 12 10 36 8 44 0 2-2 4-2 4 0 4 4 20 6 26 2 4 2 8 2 12 6 22-14 40-26 52l-4 4c-12 10-30 18-42 22l-8 4c-2 0-4 2-6 2-8 4-8 4-8 6-2 2 0 14 0 18 2 6 2 10 2 12 0 12-10 22-20 30-4 4-10 10-10 12-8 12-26 34-38 48-10 10-18 14-28 14 18 188 176 336 368 336 12 0 24 0 34 0 2-2 2-2 4-2 4 0 16-6 24-10-10-16-24-34-12-46 0 0 0-2 0-2-10 2-20 4-28 0-10-4-18-14-28-30-2-4-6-8-6-10-10-8-12-20-10-34-12 0-26 0-34-8-18-18 0-58 0-58 8-16 28-14 44-12 2 0 4 0 6 0 8 0 16 4 38 16 4 2 10 6 16 10 4-2 10-4 12-4s2 0 4 0c2-2 4-4 8-6 8-4 20 0 34 12 12-10 30-6 40-4 4 2 8 2 12 2 2 0 6 0 8 2-2-4-4-8-4-12s2-8 6-12l104-96c14-10 24-6 28-2 14 10 10 32-12 94 0 0 0 0 0 0 10-4 14-6 20-8 6 0 12 0 18 4 10-16 26-54 38-94 0 0 0-2 2-2 2-18 4-38 4-56 0-204-166-370-370-370zM894 354c-4-8-6-16-10-22-62-152-202-258-364-278h-20v44c210 12 378 188 378 402 0 172-110 320-262 378l18 44c2-2 4-2 6-4l4-2c6-2 10-4 16-6l8 14-6-16c6-2 12-6 18-8 0 0 2-2 2-2 6-2 12-6 18-10 0 0 0 0 0 0 6-4 14-8 20-12 170-114 242-330 174-522z" />
<glyph unicode="&#xe057;" d="M1020 80c-22 34-106 120-372 184 0 42-4 70-6 82 18 26 82 132 86 272v4c2 136-72 216-212 222-2 0-2 0-4 0-4 0-4 0-6 0-140-6-214-86-212-222v-4c6-140 68-246 86-272-2-12-6-40-6-82-260-64-346-148-370-182-6-8-4-18 2-24 8-6 20-4 24 4 18 24 98 108 366 172 8 2 12 10 12 18 0 60 6 96 6 96 2 4 0 10-2 14-2 0-78 110-84 256v4c-2 118 60 182 182 188 0 0 0 0 2 0 0 0 0 0 0 0 122-6 184-70 182-188v-2c-6-148-82-258-84-258-2-4-4-10-2-14 0 0 6-36 6-96 0-8 6-16 12-18 272-64 350-150 366-174 4-6 10-8 14-8s8 2 10 4c8 4 10 16 4 24z" />
<glyph unicode="&#xe075;" d="M1016 956c-6 4-12 6-20 2l-902-384c0 0 0 0 0 0l-70-30-10-4c-2-2-4-2-6-4s-2-4-4-6c0 0 0 0 0 0 0-2 0-4 0-6s0-4 0-8c114-264 324-470 590-578 2-2 4-2 6-2s4 0 6 2c2 0 2 0 2 0s0 0 0 0c2 0 4 2 4 2s2 2 2 2c0 0 2 2 2 4 0 0 0 0 0 0l22 50 10 26c0 0 0 0 0 0l372 914c2 6 0 14-4 20zM592-24c-84 36-164 82-234 136-136 106-244 242-314 402l48 22c108-228 290-410 518-516zM732 320c-86 42-128 136-94 216 32 78 126 116 218 88zM868 656c-108 34-224-12-262-108-40-96 10-210 112-260l-96-236c-218 104-394 278-498 496l848 362zM280 500c4-24 22-46 42-58 12-6 24-8 34-8 26 0 50 18 62 48 16 38-2 76-40 92-10 4-20 6-28 6-26 0-40-16-56-34-12-12-16-28-14-46zM318 524c16 18 24 22 32 22 4 0 8 0 16-4 20-8 30-26 22-46-4-8-14-28-32-28-6 0-10 2-18 4-12 8-22 20-24 34 0 4 0 12 4 18z" />
<glyph unicode="&#xe07c;" d="M1018 304c0 4-2 8-4 10-8 20-30 40-62 58 30 32 46 74 46 130 0 208-224 386-490 386s-490-178-490-386c0-58 18-100 48-132-30-16-62-40-62-80 0 0-2 0-2 0 0-6-6-68 2-98 26-116 210-184 508-184 284 0 470 66 506 180 12 36 2 108 0 116zM508 852c246 0 456-160 456-350 0-176-190-190-456-190-268 0-456 14-456 190 0 190 208 350 456 350zM916 340c0 0-2 0-2-2-22-72-148-104-402-104-176 0-378 12-402 100 96-56 252-56 398-56 150 0 312 0 408 62zM74 336c0-2 0-2 0-4 26-116 226-132 438-132 276 0 406 38 436 128 0 2 0 4 0 8 20-12 38-28 38-48 0-60-196-128-476-128-278 0-474 68-474 128 0 12 6 28 38 48zM510 44c-270 0-452 58-474 156-2 6-2 18-2 30 76-68 282-104 476-104 198 0 404 38 480 106 0-14-2-26-4-34-32-96-214-154-476-154zM646 756c0 20-14 36-34 36s-34-16-34-36c0-22 14-38 34-38s34 16 34 38zM544 588c0 20-16 36-36 36-18 0-34-16-34-36 0-22 16-38 34-38 20 0 36 16 36 38zM400 484c-20 0-34-18-34-38s14-38 34-38c18 0 34 18 34 38s-16 38-34 38zM588 446c0-20 16-38 36-38 18 0 34 18 34 38s-16 38-34 38c-20 0-36-18-36-38zM774 602c0 20-16 38-36 38-18 0-34-18-34-38s16-38 34-38c20 0 36 18 36 38zM888 454c0 22-16 38-34 38-20 0-36-16-36-38 0-20 16-36 36-36 18 0 34 16 34 36zM426 746c0 20-16 38-36 38-18 0-34-18-34-38s16-36 34-36c20 0 36 16 36 36zM174 420c20 0 36 16 36 36 0 22-16 38-36 38-18 0-34-16-34-38 0-20 16-36 34-36zM290 604c0 22-16 38-34 38-20 0-36-16-36-38 0-20 16-36 36-36 18 0 34 16 34 36z" />
<glyph unicode="&#xe07d;" d="M604 668c58-58 84-106 78-146-2-12-16-38-84-68-4-2-18-6-14-20 2-8 8-14 16-14 4 0 6 0 10 2l2 2c64 28 98 58 104 94 8 50-20 108-88 174-90 90-46 148-44 150 4 8 4 18-4 24s-18 6-24-2c-2-4-64-84 48-196zM458 656c62-62 104-104 44-200-4-8-2-20 6-24 4-2 6-2 10-2 6 0 10 2 14 8 74 118 14 178-50 242-14 12-26 26-40 40-22 26-32 50-26 78 12 72 114 130 116 130 8 4 10 14 6 24-4 8-14 10-22 6-6-2-120-66-134-154-6-38 6-74 36-106 12-16 26-30 40-42zM274 624c82-42 128-70 108-172-2-10 4-18 14-20 0 0 2 0 2 0 8 0 16 6 18 14 24 130-52 170-126 208-22 12-36 28-38 48-12 54 46 122 48 122 6 8 4 18-2 24-8 6-18 6-24-2-4-2-70-82-56-152 6-30 24-54 56-70zM900 50h-182c20 16 36 36 48 58 70 14 118 70 118 144 0 56-22 126-80 146-2 0-4 2-6 2h-572c-10 0-18-8-18-18v-12c0-84 0-234 96-320h-180c-10 0-18-8-18-18 0-90 398-96 402-96 96 0 410 6 410 96 0 10-8 18-18 18zM242 366h554c36-16 54-68 54-114 0-60-40-104-96-112-6 0-10-4-14-8-18-36-46-64-80-82h-296c-120 66-122 220-122 316zM508-30c-130 0-286 22-344 46h500c0 0 0 0 0 0s2 0 2 0h200c-44-24-178-46-358-46zM760 180c0 0 2 0 4 0 8 0 14 6 16 14l24 118c2 8-4 18-12 20-10 2-18-4-20-14l-26-118c-2-8 4-18 14-20z" />
<glyph unicode="&#xe080;" d="M70 120l-10 2h-8zM1004 852h-102c-10 0-18-8-18-20v-100c0-12 8-20 18-20 0 0 2 0 2 0s0 0 0 0h20c-26-84-106-216-336-236v34c0 4-2 10-6 14s-8 6-14 6l-110 2c-12 0-20-10-20-20v-38h-296c-2 4-4 6-6 10-14 18-44 22-62 6-20-14-22-42-8-62 10-10 22-16 36-16 10 0 18 4 26 10 6 4 10 10 14 18h164c-158-56-218-170-240-244l-46-2c-12 0-20-8-20-20v-110c0-12 8-20 20-20 0 0 0 0 0 0s0 0 0 0h112c10 0 20 8 20 20v112c0 10-10 20-20 20h-30c28 84 108 210 334 238v-32c0-12 8-20 20-20l110-2c0 0 0 0 0 0 12 0 20 8 20 20v40h308c2-4 4-8 6-12 8-10 22-16 34-16 10 0 20 4 28 10 20 16 22 44 8 62-16 18-44 22-62 6-6-4-10-10-14-16h-158c148 54 202 166 224 238h44c12 0 20 8 20 20v100c0 12-8 20-20 20zM118 160v-82h-84v82h24c-4-22-6-36-6-38h8l26-2c2 4 2 18 6 40zM472 498l82-2v-22c-8 0-16 0-26 0-2 0-6 0-8 0h-48zM552 414h-82v24c16 0 32 2 50 2h32zM990 746h-22c4 22 6 36 6 36 0 10-8 18-18 18s-18-8-18-18c0 0 0-14-4-36h-16v72h72z" />
<glyph unicode="&#xe082;" d="M252 686c-6 0-12 2-20 2-50 0-94-34-102-80-4-26 4-52 20-74 18-22 42-36 70-40 6-2 14-2 20-2 52 0 94 34 102 80 4 26-2 52-20 74-16 20-42 34-70 40zM308 578c-4-30-34-52-68-52-4 0-10 0-14 2-20 2-38 12-48 28-12 14-16 30-14 46 4 30 34 50 68 50 6 0 10 0 14 0 20-4 38-14 50-28 10-14 16-30 12-46zM854 442c8 0 18 2 30 2 24 4 44 20 54 44s8 50-6 68c-30 38-70 50-108 34-40-18-66-36-46-104 8-28 34-44 76-44zM838 558c6 4 14 4 20 4 20 0 36-14 46-28 8-8 8-22 4-34-4-6-10-20-30-22-8 0-18-2-24-2-38 0-42 14-42 20-14 44-6 48 26 62zM832 244c2-2 6-2 8-2 24 0 46 12 60 34 12 20 14 44 6 62-20 46-54 66-94 60-44-6-74-18-72-88 2-56 70-64 92-66zM816 364c4 2 6 2 10 2 26 0 40-22 50-42 2-8 2-20-6-30-2-6-14-20-34-16-54 6-60 22-62 32-2 48 8 48 42 54zM602 214c-30-44 18-92 34-106 12-14 30-20 48-20 32 0 62 22 68 52 10 48-4 86-40 104-14 8-30 16-46 16-24 0-42-14-64-46zM720 146c-4-12-20-24-36-24-6 0-16 2-24 10-40 38-36 54-30 64 18 26 30 30 36 30 8 0 18-6 30-12 22-12 30-34 24-68zM520 194c-16 14-32 28-54 28-18 0-38-10-60-32-40-38-2-94 10-112 14-20 34-30 58-30 28 0 52 14 64 36 20 44 12 84-18 110zM506 98c-4-10-18-16-32-16-8 0-20 2-30 14-30 46-22 62-14 68 16 16 28 24 36 24s18-8 32-20c20-16 22-40 8-70zM1020 836c-6 8-16 8-24 2l-68-56-66 66 58 66c6 6 4 18-2 24-8 6-18 6-24-2l-174-204c-4 0-6 0-10 0-40-4-66-14-90-22-28-10-52-18-100-12-14 0-24 24-36 50-24 50-56 118-148 108-214-22-336-166-336-400 0-276 228-502 508-502s508 226 508 502c0 118-44 204-126 248l128 108c8 6 8 18 2 24zM902 760l-214-184c-2 4-4 6-6 6-2 2-6 4-8 8-2 2-4 4-6 8-4 2-6 6-10 10l182 214zM630 586c2 0 6-2 10-10 4-4 6-8 10-10 4-4 6-6 10-10 6-4 10-6 10-10 0-2-2-12-24-40-30-38-100-70-144-88 18 42 52 112 90 144 24 22 36 24 38 24zM982 456c0-258-214-468-474-468-262 0-474 210-474 468 0 216 108 346 306 366 68 6 90-42 112-90 16-32 32-64 64-68 56-8 84 4 116 14 16 6 32 12 54 16l-64-76c-14-2-30-12-52-30-62-52-112-188-114-194s0-14 4-18c4-4 8-4 14-4 0 0 2 0 4 0 6 2 144 50 196 112 20 26 28 44 30 60l158 136c78-36 120-112 120-224z" />
<glyph unicode="&#xe084;" d="M958 960h-892c-36 0-66-30-66-66v-892c0-36 30-66 66-66h892c36 0 66 30 66 66v892c0 36-30 66-66 66zM990 2c0-18-14-32-32-32h-892c-18 0-32 14-32 32v892c0 18 14 32 32 32h892c18 0 32-14 32-32zM906 742h-786c-10 0-18-8-18-16v-548c0-4 0-8 4-12 4-2 8-4 12-4h788c0 0 0 0 0 0 8 0 16 6 16 16l2 546c0 6-2 10-6 12-2 4-6 6-12 6zM890 708l-2-400-86 86c-6 8-38 46-72 44-22-2-44-20-60-34l-22 24c-8 8-44 52-84 50-36-2-74-44-82-52l-54 54c-8 10-52 62-100 60-46-2-96-58-100-64l-92-92v324zM136 196v140c0 2 2 2 4 4l114 114c10 12 50 50 76 52s62-34 72-48c0 0 0 0 0-2l68-66c6-8 18-8 24 0l12 12c12 12 42 40 60 42 20 0 46-26 56-38 0 0 0-2 0-2l36-36c4-2 8-4 12-4 6 0 10 2 12 6 16 16 36 32 50 34 14 0 34-18 44-32 2 0 2-2 2-2l106-106c2-2 4-2 4-2v-66zM456 550c12-18 34-30 60-30 0 0 0 0 0 0 20 0 38 8 52 20 2 0 6 0 10 0 32 0 58 20 58 48 0 6 0 14-8 24 0 28-28 50-64 50 0 0-2 0-4 0-10 12-28 18-44 18-26 0-48-12-56-32-26-8-42-26-42-50 0-20 14-40 38-48zM476 618c6 0 10 6 12 12 2 8 12 14 28 14 12 0 22-4 26-10 2-4 10-8 16-6h4c0 0 2 0 2 0 16 0 28-8 30-16 0-2 0-2 0-4 0-4 0-10 4-14 4-2 4-4 4-6 0-8-18-18-36-12-8 2-16 0-20-8-4-6-16-14-30-14v0c-18 0-28 8-32 16-2 6-6 8-12 10-12 4-20 10-20 18s10 16 24 20zM728 496c2 0 6 0 8 0 10-10 24-16 42-16v36c-12 0-18 4-22 8-4 6-12 10-20 8-10-4-18 0-22 2 0 2-2 2-2 4 0 0 2 0 2 2 4 4 6 10 6 16 0 0 0 0 0 0 0 4 8 10 18 10 2 0 2 0 2 0l4-2c6 0 12 2 16 8 2 2 8 6 18 6s16-6 18-8c0-6 6-12 12-14 10 0 16-6 16-10s-6-10-14-12c-6 0-10-4-12-8-2-6-10-10-20-10l-2-18 2-18c20 0 38 10 48 24 20 8 32 24 32 42s-14 34-34 42c-8 14-26 24-46 24-14 0-28-4-38-12 0 0 0 0 0 0-30 0-54-18-54-42-6-8-8-16-8-20 0-10 4-20 12-28 10-8 24-14 38-14z" />
<glyph unicode="&#xe08b;" d="M1012 82l-572 572c-20 20-54 18-76-4l-60-62c-12-12-18-26-18-42 0-12 4-24 12-34l208-206c0-2 0-2 0-2s2 0 2 0l362-362c2-2 4-4 6-4 0 0 0 0 0 0 2-2 2-2 4-2 0 0 2 0 2 0 2 0 4 0 4 0 2 2 2 2 2 2s0 0 2 0c0 0 2 2 4 2 0 0 0 0 0 0v0c2 2 4 4 4 6 0 0 0 0 0 0 0 2 0 2 0 2 2 2 2 4 2 6 0 4-2 8-6 12 0 0 0 0 0 0l-350 350 92 94 352-352c2-4 6-6 12-6 4 0 8 2 12 6 6 6 6 18 0 24zM518 340l-196 196c-2 4-2 8-2 10 0 6 2 12 8 18l34 34c0 0 0 0 0 0l28 28c8 8 20 10 26 4l196-196zM242 642c-16-6-62-16-82-16-4 0-6 0-6 0-8 4-34 34-58 66-4 6-14 10-22 6-6-4-10-12-8-20 10-38 16-78 14-88-2-8-34-34-66-58-6-4-8-14-4-22 2-6 12-10 18-8 18 4 64 14 84 14 2 0 4 0 4 0 8-4 38-38 58-66 4-4 10-6 14-6s6 0 8 2c8 2 12 12 10 18-10 36-18 80-16 88 4 10 38 38 66 58 6 6 8 14 6 22-4 8-12 12-20 10zM158 564c-2-8-2-22 0-40-12 12-22 22-30 24-4 2-10 2-16 2s-14 0-22-2c10 12 20 22 22 32 4 8 4 22 2 38 10-12 20-22 30-24 4-2 8-2 16-2 6 0 14 0 22 2-12-12-22-22-24-30zM348 674c38 16 108 40 130 40 0 0 2 0 2 0 14-2 64-48 104-88 2-4 8-6 12-6 0 0 0 0 0 0 10 0 18 8 18 18 0 4-2 6-4 10-22 50-42 112-38 126 2 16 48 66 88 104 6 6 6 16 2 22-4 8-14 10-22 6-26-10-100-40-126-40-2 0-2 0-4 0-14 4-66 48-104 88-6 6-14 8-22 4-6-6-8-14-6-22 22-52 42-116 40-130s-48-64-88-104c-6-6-6-16-2-22s14-10 20-6zM452 800c2 14-6 48-16 78 24-20 52-42 68-44 16-4 48 4 78 14-20-24-40-50-44-66s4-48 14-80c-24 22-50 42-66 46-2 0-4 0-8 0-16 0-46-8-72-18 22 26 42 54 46 70zM746 446c26 10 72 26 88 26 10-2 44-34 68-60 4-4 8-6 12-6 0 0 2 0 2 0 8 0 16 8 16 16 0 4 0 8-2 10-14 34-26 76-24 86 2 8 30 40 60 68 6 6 8 14 4 22-6 6-14 10-22 6-24-10-70-26-88-26 0 0 0 0 0 0-10 4-42 34-68 62-6 6-14 8-22 2-6-4-10-12-6-20 12-34 26-78 26-88-4-10-36-44-62-68-6-6-8-16-4-22 6-8 14-10 22-8zM822 536c2 8 0 24-4 42 12-12 26-20 34-22 10-2 24 0 42 4-12-14-20-26-22-36-2-8 0-24 4-40-12 12-26 20-34 22-2 0-6 0-8 0-8 0-22-2-34-6 12 14 20 28 22 36z" />
<glyph unicode="&#xe08c;" d="M476 416l-156 496c-4 6-10 12-18 12s-14-6-16-12l-136-496c0 0 0 0 0 0 0-2-2-4-2-4v-458c0-10 8-18 18-18 0 0 0 0 0 0 10 0 16 8 16 18l2 448 50 36 46-36v-448c0-10 8-18 18-18 0 0 0 0 0 0 8 0 16 8 16 18v448l70 40 58-40v-448c0-10 8-18 16-18 0 0 0 0 0 0 10 0 18 8 18 18v458c0 0 0 2 0 4 0 0 0 0 0 0zM304 846l32-100h-60zM298 432l-54 40c0 0-2 0-2 0 0 2-2 2-2 2-2 0-2 2-4 2 0 0-2 0-2 0-2 0-2 0-4 0 0 0-2-2-2-2-2 0-2 0-4 0 0 0 0 0 0-2l-28-20 70 260h80l82-260-32 24c-2 0-2 0-4 0 0 0-2 2-2 2-2 0-2 0-4 0s-2 0-4 0c0 0-2 0-2-2-2 0-2 0-4 0zM814 448c16 20 26 56 30 108 14 146-100 384-106 394-2 6-8 10-16 10-6 0-12-4-14-10-6-10-122-248-106-394 6-60 18-96 38-114l-60-486c-2-10 4-18 14-20 0 0 2 0 2 0 8 0 16 6 16 14l60 478c4-2 6-2 10-2 6 0 14 2 22 2 14 2 26 2 40 0 6 0 14-2 22-2 6 0 12 0 16 2l60-478c0-8 8-14 16-14 0 0 2 0 2 0 10 2 16 10 16 20zM748 462c-8 0-16 2-26 2-8 0-16 0-22-2-6 0-12-2-18-2 0 0 0 0 0 0-14 0-36 0-46 100-12 104 56 272 86 342 32-72 98-238 88-344-8-98-30-98-44-98-6 0-12 2-18 2z" />
<glyph unicode="&#xe091;" d="M106 478c-32 38-28 96 12 128 22 18 52 24 80 18 6-2 14 0 18 6s4 14 0 20l-30 34c-14 20-22 44-20 68s14 46 34 60c18 16 42 24 66 20 24-2 46-12 60-32l30-36c4-4 10-6 16-6 4 0 10 4 12 8s6 8 8 10c8 6 16 10 24 10s14 4 16 10c2 6 2 12-2 18l-40 46c-6 8-10 18-8 30 0 10 6 20 14 26 18 14 42 12 56-4l140-170c6-8 18-8 24-2 8 6 8 16 2 24l-140 170c-26 30-72 36-104 10-14-14-24-32-26-52-2-18 4-38 16-54l22-26c-6-2-10-6-14-10-2 0-2 0-2 0l-16 20c-22 26-52 42-86 44-32 4-64-6-90-26-26-22-42-52-46-86-2-32 8-66 28-90l4-4c-26-2-48-12-68-28-54-44-62-122-18-176l68-82c4-4 8-6 14-6 4 0 8 0 10 4 8 6 8 16 2 24zM964 56l-166 202c14 54 16 90 6 102-4 6-10 10-18 10-16 0-50-26-100-78-2 4-4 6-6 8l-2 2c-2 2-2 4-4 4l162 228c0 0 0 0 0 2 20 38 20 48-12 84l-30 38c-20 24-34 36-50 38-14 2-26-6-38-16l-20 22c-10 14-24 20-40 20-14 0-26-4-34-12l-414-340c-10-10-18-22-18-36-2-14 2-28 12-40l74-90c10-12 24-18 42-18 12 0 24 4 34 12l412 340c10 8 18 22 18 36 2 14-2 28-12 40l-32 40c4 4 10 8 12 8s10-4 28-26l30-38c20-24 20-24 8-46l-162-228c-14-20 0-34 8-44l2-2c2-2 4-4 6-8-100-64-100-84-100-90 0-28 36-30 70-30 16 0 30 2 40 2l166-202c8-8 20-14 32-14 8 0 18 4 26 10l64 54c10 6 14 16 16 26 0 12-2 22-10 30zM738 578c0-6-2-10-6-14l-412-340c-4-4-10-4-12-4-6 0-12 2-16 6l-74 90c-4 4-6 10-4 14 0 6 2 10 6 14l412 340c6 4 10 4 14 4 6 0 10-2 14-6l74-90c4-4 6-10 4-14zM938 26l-66-54c-2-2-4-2-4-2-2 0-4 0-6 2l-172 208c-2 4-8 6-12 6 0 0-2 0-2 0s-22-2-46-2c-12 0-22 2-28 2 16 14 50 38 78 56 2 2 2 2 2 2l20 16c2 2 2 2 2 2 24 26 54 54 72 66-2-16-6-44-14-70 0-6 0-12 4-16l172-208c2-2 2-4 2-4 0-2-2-2-2-4z" />
<glyph unicode="&#xe092;" d="M902 926l-4 4c-24 24-58 34-92 28-30-6-62-22-86-46 0 0 0-2-2-2l-42-54-30 30c-10 10-20 16-32 16-20 0-36-16-50-32l-14-14c-16-16-32-30-32-50 0-12 6-22 16-32l12-14-358-358c-38-38-28-78-10-108l-42-42c-22-22-20-54 6-80h2c12-12 24-20 36-22 2 0 6 0 8 0 12 0 24 4 34 14l42 44c16-10 34-18 52-18s38 8 56 28l360 358 12-14c10-10 22-14 32-14 20 0 36 14 52 30l12 14c16 16 32 30 32 50 0 12-6 24-16 34l-28 28 54 44c0 0 0 0 0 2 26 24 42 54 48 84 6 36-4 68-28 92zM198 188c-4-4-8-4-12-4-6 0-12 4-18 12h-2c-18 20-10 28-6 30l38 40c8-6 12-12 18-18l4-4c4-4 10-10 18-16zM348 242c-18-20-38-26-72 0 0 0 0 0 0 0-2 0-2 0-2 0-10 6-18 16-30 26l-4 4c-10 12-18 20-26 28 0 2 0 2-2 4 0 0 0 0 0 0-24 34-18 54 0 74l358 358 136-136zM838 642c0-4-12-16-22-26l-14-14c-8-8-20-20-26-20-2 0-4 2-8 4l-22 22c0 2-2 4-2 4-2 2-2 2-4 4l-156 156c0 0 0 0-2 0 0 0 0 0 0 0l-24 26c-4 2-6 6-6 8 0 6 12 16 22 26l14 14c8 10 20 20 26 20 2 0 4 0 8-4l210-210c4-4 6-8 6-10zM860 774l-58-44-102 102 44 56c20 20 44 32 68 36 16 4 40 2 62-18l4-4c34-36 16-92-18-128zM168 112c-2 6-6 10-12 10s-12-2-16-6c-2-2-46-60-46-120 0-32 26-60 60-60 0 0 0 0 0 0 32 0 60 28 60 60 0 6 0 24-30 86-2 4-16 30-16 30zM154-30c-16 0-26 12-26 26 0 28 12 56 24 76 0-2 0-4 2-4 24-54 26-68 26-72 0-14-12-26-26-26z" />
<glyph unicode="&#xe093;" d="M678 484c-30 22-64 34-102 34-92 0-168-76-168-168s76-168 168-168c92 0 168 76 168 168 0 44-16 82-44 112-6 8-14 16-22 22zM682 416c0-26-22-48-46-48-26 0-46 22-46 48 0 24 20 46 46 46 8 0 16-2 22-6 6-6 12-10 16-16s8-16 8-24zM576 216c-74 0-134 60-134 134s60 134 134 134c6 0 10 0 16-2-22-14-36-38-36-66 0-46 36-82 80-82 30 0 56 18 70 44 2-8 4-18 4-28 0-74-60-134-134-134zM202 534v60h60c24 0 40 30 40 50s-16 50-40 50h-60v60c0 26-30 42-50 42-22 0-52-16-52-42v-60h-60c-24 0-40-30-40-50s16-50 40-50h60v-60c0-26 30-42 52-42 20 0 50 16 50 42zM118 628h-76c-2 0-8 10-8 16s6 16 6 16h78c10 0 16 8 16 18v76c2 2 12 8 18 8s14-6 16-8v-76c0-10 8-18 16-18h76c4 0 8-10 8-16s-4-16-6-16h-78c-8 0-16-8-16-18v-76c-2-2-10-8-16-8s-16 6-18 8v76c0 10-6 18-16 18zM1008 394c0 2-2 2-2 4-204 210-416 206-434 204-18 2-230 6-434-204 0-2 0-2-2-4-10-14-16-28-16-42s6-30 16-44c2 0 2-2 2-2 186-192 376-206 424-206 4 0 8 0 10 0 18 0 232-4 434 206 0 0 2 2 2 2 10 14 16 30 16 44s-6 28-16 42zM980 330c0 0 0-2 0-2-196-202-398-194-406-194-2 0-2 0-2 0s0 0 0 0c-10 0-212-8-408 194 0 0 0 2 0 2-6 6-10 14-10 20 0 2 0 2 0 2s0 0 0 0c0 6 4 14 10 22 0 0 0 0 0 0 198 204 398 196 408 194 0 0 0 0 2 0 8 0 210 10 406-194 0 0 0 0 0 0 6-8 10-16 10-22 0-8-4-16-10-22z" />
<glyph unicode="&#xe09c;" d="M1004 52l-440 424c6 0 12 2 18 4 124 24 136 30 136 50 0 14-8 22-108 92-26 20-62 44-72 54 0 12 4 46 6 74 14 132 14 154-2 162-2 2-8 2-10 2-16 0-46-20-130-84-22-16-48-36-58-44-12 4-40 18-66 28-86 38-126 56-142 56-8 0-12-4-16-6-12-12-10-24 34-150 10-30 22-66 24-78-6-10-32-40-54-64-84-92-96-106-88-124 6-12 16-18 98-18 24 0 50 2 74 2 30 0 56 0 64 0 6-10 24-40 38-64 66-116 76-128 92-128 2 0 2 0 2 0 20 2 26 18 62 138 2 4 2 6 2 8l430-444c2-4 6-6 12-6 4 0 8 2 12 4 6 6 6 18 0 24 0 2-2 2-2 4l-440 456c8 20 10 30 12 34 6 2 18 6 32 8l456-438c4-4 8-6 12-6s8 2 12 6c6 6 6 18 0 24zM468 484c-4-6-10-16-24-60-2-12-6-24-10-36-10-32-24-80-34-104-16 22-44 70-62 102-38 66-42 74-52 78-4 2-8 2-30 2-12 0-30 0-48 0-24 0-50 0-74 0-28 0-46 0-58 0 16 22 50 60 72 84 56 60 64 70 64 80 2 8-2 22-26 96-12 30-28 78-34 104 28-10 78-32 112-46 62-28 74-32 82-32 0 0 0 0 0 0 8 0 16 6 76 50 30 22 74 56 98 72 0-28-6-84-10-120-8-72-8-84-4-92 2-8 14-18 84-68 26-18 62-44 82-60-24-6-66-16-98-22-82-16-98-22-106-28zM488 618c-12 6-26 16-32 22 0 8 2 20 4 32 6 64 8 80-6 86-4 2-6 2-10 2-10 0-20-6-68-42-8-6-18-14-24-18-6 2-18 6-26 12-48 20-64 26-74 26-4 0-10-2-14-4-10-10-6-22 14-82 4-12 10-26 12-34-6-6-16-18-24-26-42-46-50-56-44-70 6-12 18-14 56-14 12 0 24 0 36 0 10 0 18 0 26 0 4-6 10-16 14-26 34-58 40-66 54-66 0 0 2 0 2 0 16 0 20 14 38 72 2 12 8 28 10 36 8 2 26 4 38 8 60 12 74 16 74 32 0 12-6 18-56 54zM464 566c-42-10-50-12-56-18-6-4-8-12-20-50-2-8-6-22-10-32-6 10-14 24-20 34-20 34-22 38-28 40-4 2-8 4-20 4-6 0-14-2-24-2-14 0-32 0-44 0 8 10 16 20 24 26 26 30 32 36 32 44 2 6 0 12-14 50-2 10-6 24-10 34 12-6 28-12 38-16 32-14 36-16 42-16 8 0 12 4 42 26 10 8 22 16 34 24-2-12-4-28-4-40-4-36-6-42-2-48 2-6 6-10 44-36 6-6 16-12 24-18-10-2-20-6-28-6zM588 698c2 0 4 0 6 2l90 34c8 2 12 12 10 22-4 8-14 12-22 10l-90-36c-10-2-14-12-10-22 2-6 8-10 16-10zM330 844c0 0 0 0 0 0 10 2 18 10 16 20l-8 80c-2 10-10 16-20 16-8-2-16-10-14-18l8-82c2-10 8-16 18-16zM114 624c8 0 14 6 16 12 4 10-2 20-10 22l-82 26c-10 2-18-2-22-12-2-8 2-18 12-20l82-26c0 0 2-2 4-2zM248 408c-8 4-18-2-20-10l-32-86c-2-8 2-18 12-22 2 0 4 0 6 0 6 0 12 4 16 10l30 86c2 10-2 20-12 22z" />
<glyph unicode="&#xe09f;" d="M824 688c2 2 4 8 4 12l-10 222c0 8-8 16-18 16h-772c-8 0-16-8-16-16l-12-222c0-4 2-10 4-12 4-4 8-6 14-6h50c10 0 18 8 18 16 2 40 12 72 26 94s30 36 50 44c10 4 32 8 80 8h86v-678c0-64-8-86-14-92-8-14-30-38-70-38h-34c-10 0-16-6-16-16v-46c0-8 6-16 16-16h402c8 0 16 8 16 16v46c0 10-8 16-16 16h-34c-32 0-56 18-68 32-4 6-14 26-14 98v678h102c34 0 60-6 80-16 20-12 34-28 46-52 8-16 14-42 18-78 2-10 8-16 18-16h52c4 0 8 2 12 6zM774 716c-4 34-10 58-18 74-16 30-36 52-62 68-24 14-56 20-96 20h-120c-4 0-8 0-12-4-2-4-4-8-4-12v-696c0-64 6-102 22-120 18-20 50-44 94-44h16v-10h-366v10h16c54 0 86 34 98 52 14 18 20 54 20 112v696c0 4-2 8-6 12-2 4-8 4-12 4h-100c-44 0-76-2-96-10-24-10-48-30-66-58-14-24-24-56-28-94h-18l8 188h740l10-188zM984 218c-4 0-8 0-12-4l-192-192c-2-2-4-8-4-12 0-22 18-40 40-40h168c22 0 40 18 40 40v170c0 22-18 38-40 38zM990 10c0-2-2-6-6-6h-168c-2 0-4 2-4 2l176 176c2 0 2-2 2-2z" />
<glyph unicode="&#xe0a3;" d="M442 312v-72c0-22 20-42 42-42h38c24 0 44 20 44 42v72h72c22 0 42 20 42 44v38c0 22-20 42-42 42h-72v72c0 24-20 44-44 44h-38c-22 0-42-20-42-44v-72h-72c-24 0-44-20-44-42v-38c0-24 20-44 44-44zM362 356v38c0 4 4 8 8 8h88c10 0 18 8 18 16v90c0 4 4 8 8 8h38c6 0 8-4 8-8v-90c0-8 8-16 18-16h90c4 0 8-4 8-8v-38c0-6-4-10-8-10h-90c-10 0-18-6-18-16v-90c0-4-2-8-8-8h-38c-4 0-8 4-8 8v90c0 10-8 16-18 16h-88c-4 2-8 4-8 10zM1024 134v496c0 24-8 44-24 60-24 24-60 22-62 22h-246v50c0 66-50 82-80 82 0 0 0 0 0 0h-200c-64 0-82-54-82-82v-50h-248c-24 0-44-8-60-22-24-24-22-60-22-60v-496c0-24 8-44 22-60 24-22 54-22 58-22 0 0 0 0 0 0h860c26 0 48 8 62 24 24 24 22 58 22 58zM364 760c0 6 2 50 48 50h200c14 0 46-4 46-48v-50h-30v14c0 2 0 24-14 38-6 8-18 16-36 16h-134c-20-2-50-16-50-50v-18h-30zM592 712h-164v18c0 12 12 14 16 16h134c8 0 10-4 10-4 4-4 6-12 6-16zM48 666c8 8 18 12 34 12h594c0 0 0 0 0 0h264c0 0 22 0 38-14 8-8 12-20 12-34v-126c-32-12-134-52-256-78-22 106-118 186-230 186s-206-78-230-182c-112 26-208 62-240 74v126c0 0 0 22 14 36zM504 578c112 0 202-92 202-204s-90-202-202-202c-112 0-204 90-204 202s92 204 204 204zM978 98c-8-8-22-12-38-12h-860c0 0-20 0-34 12-8 10-12 22-12 36v334c42-16 132-48 234-72 0-6-2-14-2-22 0-130 106-236 238-236 130 0 236 106 236 236 0 6 0 12 0 18 110 24 206 60 250 76v-334c0 0 0-22-12-36z" />
<glyph unicode="&#xe0a9;" d="M898 558c-26 18-52 34-78 48 10 60 16 120 16 172 0 62-52 94-106 102v4c0 8-8 16-16 16-10 0-18-8-18-16v-38c0-10 8-18 18-18 8 0 16 8 16 18 28-6 72-22 72-66 0-48-6-104-14-160-144 66-300 66-444-2-8 54-12 108-12 156 0 44 40 62 68 70 0-8 8-16 16-16 10 0 18 8 18 18v38c0 8-8 16-18 16s-18-8-18-16v-6c-50-12-100-44-100-104-2-52 4-112 14-172-44-22-84-50-124-84-20 18-48 30-76 30-62 0-112-50-112-112s50-112 112-112c62 0 112 50 112 112 0 20-6 38-16 56 38 30 74 56 108 76 22-130 56-250 62-272 4-20 28-112 146-130 8-4 16-6 24-8 10-74 50-130 112-150 24-8 48-12 74-12 112 0 210 70 260 190 62 148 28 282-96 372zM112 358c-44 0-78 34-78 78 0 42 34 78 78 78 42 0 78-36 78-78 0-44-36-78-78-78zM530 200c-98 14-116 88-118 102 0 2 0 2 0 2-2 8-40 140-64 280 174 86 330 50 434 2-22-142-60-274-62-284-2-8-22-88-126-102-2 0-2 0-4-2-18-8-36-8-54 0-2 2-4 2-6 2zM962 200c-44-106-130-170-228-170-22 0-44 4-64 10-48 16-80 58-88 120 6 2 14 4 20 6 126 18 150 118 152 128 2 8 36 136 60 276 26-14 48-28 64-40 110-80 140-200 84-330z" />
<glyph unicode="&#xe0ac;" d="M870 326h-288c-22 0-40-18-40-40 0-24 18-42 40-42h62c-36-70-108-116-190-116-116 0-212 94-212 212 0 114 92 208 204 212l134-152c8-10 26-14 58-14 16 0 32 0 40 2l32-34c2-4 8-6 12-6s8 2 12 4l44 38c2 4 4 8 4 12 2 4 0 10-4 12l-30 34c8 38 12 82-2 98l-336 386c-18 20-50 26-68 10l-10-8-12 14c-12 14-32 16-42 6l-42-36c-12-10-12-30 0-42l14-16-8-6c-8-6-12-16-14-28 0-14 6-28 16-40l106-122c-140-44-236-174-236-324 0-120 62-228 162-290h-68c-30 0-56-26-56-58 0-30 26-56 56-56h486c30 0 56 26 56 56 0 32-26 58-56 58h-62c72 44 126 114 150 194h88c22 0 40 18 40 42 0 22-18 40-40 40zM262 824c0 2 2 4 2 4l20 18c4 2 6 6 6 12 0 4 0 8-4 12l-22 26 32 28 22-26c4-4 8-6 12-6s8 2 12 4l22 20c4 2 12 2 20-6l336-386c4-8 0-44-8-76 0-6 0-12 4-16l26-28-18-16-26 28c-2 4-8 6-12 6 0 0-2 0-2 0s-24-2-46-2c-24 0-32 2-34 4l-136 156c0 0-2 2-2 2l-198 226c-4 6-6 10-6 16zM870 278h-102c-8 0-14-4-16-12-22-84-78-156-156-198-6-2-10-10-8-18 0-2 0-12 0-14-2-4 0-10 4-14 2-4 8-6 12-6h90c12 0 22-10 22-24 0-12-10-22-22-22h-486c-12 0-22 10-22 22 0 14 10 24 22 24h96c6 0 10 2 14 6s4 8 4 14c-2 2-2 12-2 14 2 6 0 14-8 18-102 54-164 158-164 272 0 140 92 260 226 296l46-52c-120-18-212-120-212-244 0-136 110-246 246-246 104 0 198 64 232 162 2 6 2 12-2 16-2 4-8 6-14 6h-88c-2 0-6 4-6 8 0 2 4 6 6 6h288c4 0 6-4 6-6 0-4-2-8-6-8z" />
<glyph unicode="&#xe0af;" d="M738 460c0 0 0 0 0 0h-148v80c0 10-8 18-18 18-8 0-16-8-16-18v-98c0-4 2-8 4-12 4-4 8-6 12-6 0 0 0 0 0 0l166 2c10 0 18 8 18 16 0 10-8 18-18 18zM960 442l-138 16c-24 56-50 98-80 124-30 30-94 70-144 70 0 0 0 0 0 0-4 0-8 0-10 0-8 22-28 48-80 52v20c0 22-16 38-38 38-20 0-38-16-38-38v-18h-332c-64 0-100-28-100-78v-316c0-30 0-98 70-98h80c12-46 52-80 100-80 50 0 90 34 100 80h400c10-46 50-80 100-80 48 0 88 34 100 80h8c36 0 66 28 66 64v100c0 34-28 64-64 64zM466 724c0 4 8 4 8 0v-18h-8zM250 168c-38 0-68 30-68 68s30 68 68 68c38 0 70-30 70-68s-32-68-70-68zM850 168c-38 0-70 30-70 68s32 68 70 68c38 0 68-30 68-68s-30-68-68-68zM990 278c0-16-14-30-32-30h-6c-6 50-50 90-102 90-54 0-98-40-102-90h-396c-4 50-48 90-102 90-52 0-96-40-102-90h-78c-24 0-36 10-36 64v316c0 12 0 44 66 44h392c62 0 64-32 64-42 0-4 4-10 8-12 4-4 10-4 14-2 8 2 14 2 20 2 0 0 0 0 2 0 36 0 92-34 120-60 26-26 52-66 76-122 2-6 6-10 12-10l148-18c2 0 2 0 2 0 18 0 32-14 32-30zM336 558l-4 10c-4 6-12 24-32 24-6 0-12 0-18-4l-20-10v24c0 10-4 34-42 34h-10c-34 0-40-20-40-34v-24l-22 12c-4 2-10 4-16 4-20 0-28-18-32-26l-4-8c-4-6-8-14-8-22 0-14 8-24 20-30l6-4-6-2c-12-6-16-14-18-18-4-14 2-28 4-34l6-8c2-6 6-14 12-18 10-8 24-10 36-4l22 12v-24c0-14 6-36 40-36h10c8 0 16 0 24 4 10 6 18 18 18 32v22l20-10c6-2 12-4 16-4 22 0 30 18 34 26l4 8c16 32-2 46-12 52l-6 2 6 2c8 6 28 20 12 52zM308 538l-36-18c-6-4-10-10-10-16s4-12 10-14l36-20c0 0-2-4-2-4l-6-10c0 0-2-4-2-6 0 0 0 0 0 0l-46 24c-6 2-12 2-16-2-6-2-8-8-8-14l-2-52c-2 0-4 0-6 0h-10c0 0-4 0-6 0 0 2 0 2 0 2v50c0 6-2 12-8 16-6 2-12 2-16 0l-46-22c-2 0-4 4-4 4l-4 10c-2 2-2 4-4 6 0 0 0 0 2 0l34 18c6 2 10 8 10 14 0 8-4 14-8 16l-36 18c0 2 0 4 2 6l4 8c0 2 2 6 4 6 0 0 0 0 0 0l46-22c4-2 10-2 16 0 4 4 8 10 8 14v52c2 0 6 0 6 0h10c2 0 6 0 8 0 0 0 0 0 0 0v-52c0-6 2-10 8-14 4-4 10-4 16 0l46 22c2-2 2-4 4-6l4-8c0-2 2-4 2-6 0 0 0 0 0 0z" />
<glyph unicode="&#xe0c4;" d="M934 816h-846c-10 0-18-8-18-18v-478c0-10 8-18 18-18h846c10 0 18 8 18 18v478c0 10-8 18-18 18zM918 336h-814v446h814zM948 890h-872c-42 0-76-34-76-76v-582c0-42 34-78 76-78h316v-54l-34-50c-2-4-4-6-4-10v-10c0-10 4-16 8-18 6-8 16-6 22-6h256c2 0 2 0 4 0 6 0 12 0 18 6 4 2 8 8 8 18v10c0 4-2 6-4 10l-32 50v54h314c42 0 76 36 76 78v582c0 42-34 76-76 76zM602 86l30-46h-240l30 46c2 2 4 6 4 10v58h172v-60c0-2 2-6 4-8zM990 232c0-24-18-42-42-42h-332c0 0 0 0 0 0s0 0 0 0h-208c0 0 0 0 0 0s0 0 0 0h-332c-24 0-42 18-42 42v582c0 24 18 42 42 42h872c24 0 42-18 42-42z" />
<glyph unicode="&#xe0c8;" d="M778 394v48c0 10-8 18-16 18h-50v300c0 110-90 200-202 200-108 0-198-90-198-200v-300h-50c-8 0-16-8-16-18v-48c0-126 90-236 212-260v-60h-114c-38 0-70-32-70-70s32-68 70-68h336c38 0 70 30 70 68s-32 70-70 70h-120v60c126 22 218 132 218 260zM346 760c0 92 74 166 164 166 94 0 168-74 168-166v-300h-332zM542 40h138c20 0 34-16 34-36 0-18-14-34-34-34h-336c-20 0-34 16-34 34 0 20 14 36 34 36h132c10 0 16 6 16 16v92c0 8-6 16-14 18-112 16-198 114-198 228v32h464v-32c0-116-88-214-204-230-8 0-16-8-16-16v-92c0-10 8-16 18-16zM512 570c-18 0-34-16-34-34s16-34 34-34c18 0 34 16 34 34s-16 34-34 34zM512 520v16c0 0 0 0 0 0zM438 646c0-18-16-34-34-34-20 0-34 16-34 34s14 34 34 34c18 0 34-16 34-34zM626 722c18 0 34 16 34 34 0 20-16 34-34 34s-34-14-34-34c0-18 16-34 34-34zM404 570c-20 0-34-16-34-34s14-34 34-34c18 0 34 16 34 34s-16 34-34 34zM404 790c-20 0-34-14-34-34 0-18 14-34 34-34 18 0 34 16 34 34 0 20-16 34-34 34zM660 646c0-18-16-34-34-34s-34 16-34 34c0 18 16 34 34 34s34-16 34-34zM660 536c0-18-16-34-34-34-20 0-34 16-34 34s14 34 34 34c18 0 34-16 34-34zM512 790c-18 0-34-14-34-34 0-18 16-34 34-34s34 16 34 34c0 20-16 34-34 34zM512 740v16c0 0 0 2 0 2zM546 646c0-18-16-34-34-34s-34 16-34 34c0 18 16 34 34 34s34-16 34-34zM512 898c-18 0-34-14-34-32 0-20 16-34 34-34s34 14 34 34c0 18-16 32-34 32zM512 864v2c0 0 0-2 0-2z" />
<glyph unicode="&#xe0cc;" d="M946 842h-870c-10 0-18-8-18-16v-590c0-10 8-18 18-18h870c10 0 18 8 18 18v590c0 8-8 16-18 16zM930 252h-838v556h838zM948 898h-872c-42 0-76-34-76-76v-584c0-42 34-76 76-76 12-2 150-20 284-28l50-4 2 16v-16l32-2c2 0 2 0 2 0s0 0 0 0h48v-96h-178c-10 0-18-6-18-16s8-18 18-18h392c8 0 16 8 16 18s-8 16-16 16h-180v96h52c174 8 354 32 370 34 40 0 74 34 74 76v584c0 42-34 76-76 76zM990 238c0-24-18-42-42-42 0 0-2 0-2 0-2 0-186-26-366-34h-68c0 0 0 0 0 0s-2 0-2 0h-76c0 0-2 2-2 2l-70 4c0 0-2 0-2 0-136 8-280 28-282 28 0 0-2 0-2 0-24 0-42 18-42 42v584c0 22 18 42 42 42h872c24 0 42-20 42-42z" />
<glyph unicode="&#xe0d3;" d="M518 530c-42 0-74-34-74-76 0-40 32-74 74-74 40 0 74 34 74 74 0 42-34 76-74 76zM518 414c-22 0-40 18-40 40 0 24 18 42 40 42s40-18 40-42c0-22-18-40-40-40zM828 852c-92 70-200 108-316 108-158 0-306-72-404-196-174-222-134-546 88-720 92-70 200-108 316-108 0 0 0 0 0 0 158 0 306 72 404 196 174 222 134 546-88 720zM888 154c-90-118-228-184-376-184-108 0-210 36-294 102-208 162-244 464-82 670 90 118 228 184 376 184 108 0 210-36 294-102 208-162 244-462 82-670zM700 454c0 102-82 184-182 184s-182-82-182-184c0-100 82-182 182-182s182 82 182 182zM518 306c-82 0-148 68-148 148 0 82 66 150 148 150s148-68 148-150c0-80-66-148-148-148zM436 634c6 0 10 4 12 10 0 4 0 8-2 14l-98 186c-4 8-14 12-22 8-126-54-218-166-244-300-2-10 4-18 14-20l204-44c2 0 2 0 4 0 4 0 6 0 10 2 4 4 6 8 6 12 12 62 56 112 116 132zM292 526l-172 36c26 110 102 202 206 252l82-156c-58-24-100-74-116-132zM928 364l-204 44c-6 0-10 0-14-2-4-4-6-8-6-12-12-62-56-112-116-132-6 0-10-4-12-8-2-6 0-10 2-16l98-186c4-6 10-8 16-8 2 0 4 0 6 0 126 54 218 166 244 300 2 10-4 18-14 20zM698 82l-82 156c58 24 100 74 116 132l172-36c-26-110-102-202-206-252z" />
<glyph unicode="&#xe0d4;" d="M1018 838c-4 2-10 4-14 4-128-30-320-66-534-52-8 2-16-4-18-12-20-96-40-194-58-290-12-70-26-142-40-214-60 46-172 54-252 28-66-22-104-66-102-122 2-60 50-106 128-120 18-4 36-6 54-6 74 0 152 30 178 88 14 32 20 86 20 96 18 80 32 164 48 244 8 44 18 88 26 132 28-2 56-2 86-2 146 0 312 18 424 46-22-122-50-280-72-380l-4 6c-42 68-174 84-256 52-66-26-98-76-86-138 10-58 68-98 150-106 84-8 180 20 206 86 22 60 70 328 100 502 0 0 0 0 0 0 10 68 20 120 22 142 0 6-2 12-6 16zM330 156c-24-54-120-78-194-64-30 6-100 26-102 90-2 52 48 78 80 88 26 8 56 12 86 12 62 0 120-18 146-48-2-18-8-56-16-78zM870 190c-18-48-100-70-170-64-52 4-112 28-120 78-12 58 28 86 64 100 24 10 52 14 80 14 58 0 116-20 136-52l22-34c-4-18-8-32-12-42zM460 648c8 36 14 72 22 108 200-12 380 18 504 46-4-24-8-62-16-106-128-36-346-56-510-48z" />
<glyph unicode="&#xe0dd;" d="M676 960h-328c-74 0-116-40-116-114v-796c0-74 42-114 116-114h328c74 0 116 40 116 114v796c0 74-42 114-116 114zM268 802h488v-688h-488zM348 926h328c56 0 80-26 80-80v-10h-488v10c0 54 24 80 80 80zM676-30h-328c-56 0-80 26-80 80v30h488v-30c0-54-24-80-80-80zM520 50h-12c-14 0-24-10-24-24v-10c0-14 10-24 24-24h12c12 0 22 10 22 24v10c0 14-10 24-22 24zM514 18c-2 0-2 2-4 4 2 0 2 2 4 2 0 0 2-2 2-2 0-2-2-4-2-4z" />
<glyph unicode="&#xe0de;" d="M828 960h-632c-48 0-78-30-78-78v-868c0-48 30-78 78-78h632c48 0 78 30 78 78v868c0 48-30 78-78 78zM872 14c0-30-16-44-44-44h-632c-28 0-44 14-44 44v868c0 30 16 44 44 44h632c28 0 44-14 44-44zM824 880h-624c-10 0-18-8-18-18v-808c0-10 8-18 18-18h624c10 0 18 8 18 18v808c0 10-8 18-18 18zM808 70h-592v776h592v-776zM518 20h-14c-10 0-16-8-16-18 0-8 6-16 16-16h14c10 0 18 8 18 16 0 10-8 18-18 18z" />
<glyph unicode="&#xe0df;" d="M828 960h-632c-48 0-78-30-78-78v-868c0-48 30-78 78-78h632c48 0 78 30 78 78v868c0 48-30 78-78 78zM152 846h720v-756h-720zM196 926h632c28 0 44-14 44-44v-2h-720v2c0 30 16 44 44 44zM828-30h-632c-28 0-44 14-44 44v42h720v-42c0-30-16-44-44-44zM518 26h-14c-10 0-16-8-16-16 0-10 6-18 16-18h14c10 0 18 8 18 18 0 8-8 16-18 16z" />
<glyph unicode="&#xe0ec;" d="M990 18c-16 8-100 70-156 110l-8 136c0 6-4 12-8 14l-62 38c0 26 0 58 0 90h56l80-100c6-8 14-14 26-14 6 0 14 2 20 8 98 82 92 90 82 102-6 8-16 10-24 4-4-4-6-6-6-12-8-10-42-42-72-66l-84 106c-4 4-8 6-14 6h-64c0 26 0 52 0 74h28c18 0 34 16 34 34v92c88 100 82 106 70 116-6 8-18 8-24 0-4-2-4-6-4-10-8-14-42-56-72-88-4-4-4-8-4-12v-98h-28c0 26 0 42 0 42s0 0 0 0c0 10-8 18-18 18h-94v40c0 22-6 42-16 58-2 2-2 2-4 4l-12 14c38 50 116 138 212 152 10 2 16 10 16 20-2 10-10 16-20 14-110-16-194-110-236-166-20 10-46 16-74 16-26 0-50-6-70-14-42 58-130 154-244 166-10 0-18-6-18-16-2-8 4-18 14-18 100-10 180-98 220-152l-12-10c-2 0-2-2-2-2-14-18-22-42-22-66v-40h-94c0 0 0 0 0 0-2 0-4 0-6 0-6-4-12-10-12-16 0-2 0-18 0-44h-24v98c0 4 0 8-4 12-30 32-64 74-72 88 0 4 0 8-4 10-6 8-18 8-24 0-12-10-18-16 70-116v-92c0-18 16-34 34-34h24c0-22 0-48 0-74h-60c-6 0-10-2-14-6l-84-106c-30 24-64 56-72 66 0 6-2 10-6 12-8 6-18 4-24-4-10-12-16-20 84-102 4-6 12-8 18-8 12 0 20 6 26 14l80 100h52c0-34 0-66 0-94l-58-34c-4-2-8-8-8-14l-6-134c-58-42-142-104-158-112-2 0-4-2-6-4-8-6-10-16-4-24 4-4 6-6 12-6 14 0 48 24 176 118 8 6 12 16 12 24l8 128 32 18c0-16 0-28 0-28 0-142 110-258 246-258s246 116 246 258c0 0 0 12 0 32l36-22 8-128c0-8 4-18 12-24 128-94 162-118 176-118 6 0 8 2 12 6 6 8 4 18-4 24-2 2-4 4-6 4zM410 648c0 16 4 32 14 44l8 6c6-8 8-12 8-12 4-6 10-8 16-8 2 0 6 0 8 2 8 4 10 14 6 22 0 2-4 8-10 16 16 4 32 8 50 8 20 0 40-4 54-10-4-8-6-12-8-14-4-8-2-18 6-22 4-2 6-2 10-2 6 0 10 2 14 8 0 0 2 4 6 8l8-8c6-10 10-24 10-40v-38h-200zM298 244c0 0 0 24 0 58 0 2 0 2 0 4 0 32 0 74 0 116 0 0 0 0 0 0 0 2 0 2 0 2 0 38 0 76 0 106 0 0 0 2 0 2s0 0 0 0c0 18 0 32 0 42h194v-554c-108 10-194 106-194 224zM528 22v552l194-2c0-68 0-326 0-328 0-118-86-214-194-222z" />
<glyph unicode="&#xe0f4;" d="M446 398h132c8 0 16 6 16 16v34c0 26-22 50-50 50h-66c-28 0-50-24-50-50v-34c0-10 8-16 18-16zM462 448c0 8 8 16 16 16h66c10 0 16-8 16-16v-16h-98v16zM1024 134v496c0 24-8 44-24 60-24 24-60 22-62 22h-246v50c0 66-50 82-80 82 0 0 0 0 0 0h-200c-64 0-82-54-82-82v-50h-248c-24 0-44-8-60-22-24-24-22-60-22-60v-496c0-64 52-82 80-82h860c26 0 48 8 62 24 24 24 22 58 22 58zM364 760c0 6 2 50 48 50h200c14 0 46-4 46-48v-50h-30v14c0 2 0 24-14 38-6 8-18 16-36 16h-134c-20-2-50-16-50-50v-18h-30zM592 712h-164v18c0 12 12 14 16 16h134c8 0 10-4 10-4 4-4 6-12 6-16zM48 666c8 8 18 12 34 12h264c0 0 0 0 0 0h330c0 0 0 0 0 0h264c0 0 22 0 38-14 8-8 12-20 12-34v-164c-44-20-238-102-482-102-224 0-428 84-474 104v162c0 0 0 22 14 36zM978 98c-8-8-22-12-38-12h-860c-8 0-46 2-46 48v298c66-28 258-102 474-102 232 0 418 70 482 98v-294c0 0 0-22-12-36zM576 322h-132c-4 0-8-2-12-4-4-4-4-8-4-12v-36c0-26 22-48 50-48h66c28 0 50 22 50 48v36c0 8-8 16-18 16zM560 270c0-8-8-14-16-14h-66c-10 0-16 6-16 14v18h98v-18z" />
<glyph unicode="&#xe0f6;" d="M910 794c0 10-10 16-18 14l-124-20-8 50c16 10 34 30 34 72 0 30-42 44-84 44s-84-14-84-44c0-42 18-62 34-72l-12-68-634-102c-4 0-8-4-10-6-4-4-4-10-4-14l114-692c0-8 8-14 16-14 0 0 2 0 2 0l878 140c4 0 8 4 10 6 4 4 4 10 4 14zM710 920c26 0 44-8 50-12-2-24-10-38-24-44-8-2-14-10-12-18l18-108c2-4 4-8 8-10l4-4c12-8 12-8 12-12 0-20-18-38-42-44 0-2-6-2-14-2s-14 0-14 2c-26 6-42 24-42 44 0 4 0 4 10 12l6 4c4 2 6 6 8 10l18 108c2 8-4 16-12 18-14 6-24 20-24 44 4 4 24 12 50 12zM144-22l-108 660 588 92c-2-4-4-10-4-18 0-34 26-64 62-76l14-70c2-8 8-14 16-14v0c8 0 16 6 18 14l14 72c34 14 56 42 56 74 0 22-12 32-26 40v2l106 18 108-660zM842 538c-2 8-12 16-20 14l-684-110c-10-2-16-10-14-20 0-8 8-14 16-14 0 0 2 0 2 0l684 110c10 2 16 10 16 20zM846 410c10 2 16 10 14 20 0 8-10 16-18 14l-684-110c-10-2-16-10-16-20 2-8 10-14 18-14 0 0 2 0 2 0zM860 328l-684-108c-10-2-16-10-14-20 0-8 8-14 16-14 0 0 2 0 2 0l684 108c10 2 16 12 14 20 0 10-10 16-18 14zM570 168l-376-60c-10-2-16-10-16-20 2-8 10-14 18-14 0 0 2 0 2 0l378 60c8 2 16 10 14 20s-10 16-20 14z" />
<glyph unicode="&#xe0f8;" d="M824 840h-170v26c0 74-46 92-86 94-62-2-92-32-92-94v-26h-276c-10 0-18-8-18-18v-868c0-10 8-18 18-18h624c10 0 18 8 18 18v868c0 10-8 18-18 18zM510 866c0 42 16 58 58 60 36-2 52-20 52-60v-26h-110zM808-30h-592v836h404v-408c0-10-4-16-12-22s-18-8-26-8c-6 0-14 2-20 8s-10 14-10 22v298c0 10-6 18-16 18s-18-8-18-18v-298c0-18 8-34 20-46s28-18 42-18c2 0 2 0 4 0 10 0 28 4 42 12 18 12 28 32 28 52v408h154z" />
<glyph unicode="&#xe0fb;" d="M644 668c2 2 4 8 4 12s-2 8-4 12c-12 12-12 12-74-48l-262-262c-82-82-24-154-4-174 30-30 64-42 102-34 36 8 64 32 78 46l466 466c30 30 48 72 46 114 0 42-18 82-48 108-26 26-64 46-102 50-34 4-82 0-126-42l-622-622c-90-90-94-198-10-288 48-46 100-70 150-70s102 24 148 70l478 480c6 6 6 18 0 24s-18 6-24 0l-478-480c-80-80-166-80-250 0-72 76-68 162 10 240l622 622c34 34 72 36 98 32 30-4 62-18 84-40s36-52 36-84c2-34-12-66-36-90l-466-466c-12-12-34-30-62-36-26-6-48 2-70 24s-52 70 6 126z" />
<glyph unicode="&#xe0fc;" d="M754 224c-2 300-78 456-224 468v250c0 10-8 18-18 18s-18-8-18-18v-250c-146-12-222-168-224-468 0 0 0-2 0-2s4-84 12-110c28-116 108-176 230-176 0 0 0 0 0 0s0 0 0 0 0 0 0 0c122 0 202 60 230 174 8 28 12 112 12 112s0 0 0 2zM304 222c0 290 72 438 208 438s208-148 208-438c0 0 0 0 0 0s0-2 0-2h-416c0 0 0 0 0 2 0 0 0 0 0 0zM314 120c-4 12-6 42-8 66h188v-42c-20-10-20-40-20-54 0-16 0-42 20-52v-68c-96 6-156 54-180 150zM528-30v68c4 2 6 2 8 6 12 10 12 28 12 44v6c0 16 0 32-12 44-2 2-4 4-8 6v42h190c-2-24-6-54-8-66-24-96-84-144-182-150z" />
<glyph unicode="&#xe101;" d="M108 406h-48c-32 0-58-24-60-56 0-2 0-2 0-4v-314c0-10 8-18 18-18h134c10 0 16 8 16 18v314c0 2 0 2 0 4-2 32-28 56-60 56zM134 48h-100v296c0 2 0 2 0 2 0 14 12 26 26 26h48c14 0 26-12 26-26 0 0 0 0 0-2zM322 510h-48c-30 0-56-22-60-54 0 0 0-2 0-4v-420c0-10 8-18 16-18h136c8 0 16 8 16 18v420c0 2 0 4 0 4-2 32-28 54-60 54zM348 48h-100v402c0 0 0 2 0 2 0 14 12 24 26 24h48c14 0 26-10 26-24 0 0 0-2 0-2zM536 662h-48c-32 0-60-26-60-58 0-2 0-2 0-2s0 0 0 0v-570c0-10 8-18 16-18h136c8 0 16 8 16 18v570c0 2 0 2 0 2-2 32-28 58-60 58zM562 48h-100v554c0 0 0 0 0 0 0 14 12 26 26 26h48c14 0 26-12 26-26 0 0 0 0 0 0zM750 766h-48c-32 0-58-24-60-56 0 0 0-2 0-2v-676c0-10 8-18 16-18h136c8 0 16 8 16 18v672c0 0 0 2 0 2s0 2 0 2c-2 32-28 58-60 58zM776 706v-658h-100v656c0 2 0 2 0 2 0 16 12 26 26 26h48c14 0 26-10 26-26 0 0 0 0 0 0s0 0 0 0zM1024 822v0c0 2 0 2 0 4-2 32-28 56-60 56h-48c-32 0-58-24-60-56 0 0 0-2 0-4v-790c0-10 6-18 16-18h134c10 0 18 8 18 18v788c0 0 0 0 0 2 0 0 0 0 0 0zM990 48h-100v772c0 0 0 2 0 2 0 14 12 26 26 26h48c14 0 26-12 26-26 0 0 0 0 0-2v-772z" />
<glyph unicode="&#xe102;" d="M1020 754c-6 8-16 10-24 4-18-16-38-34-56-54-14 8-28 12-44 12-46 0-84-38-84-84 0-14 4-26 10-38-58-42-120-64-192-70-10-2-20-2-32-4-14 26-42 46-74 46-46 0-82-38-84-82-14-4-28-8-40-10l-24-6c-82-22-142-42-194-80-14 10-30 16-50 16-46 0-84-36-84-84 0-20 10-40 22-54-12-18-22-36-34-58-10-18-22-34-32-44-6-8-6-18 2-24 2-4 6-6 12-6 4 0 8 2 12 6 12 14 24 30 36 52 10 20 22 36 32 52 10-4 22-8 34-8 48 0 84 38 84 84 0 16-4 30-10 42 46 34 100 52 180 72l24 6c10 4 24 6 36 10 12-30 42-52 78-52 46 0 84 38 84 84 0 0 0 2 0 4 10 2 18 2 24 4 80 6 148 32 212 78 14-12 32-20 52-20 46 0 84 38 84 84 0 18-6 34-16 48 18 20 36 38 54 50 6 6 8 18 2 24zM132 272c-26 0-50 22-50 48 0 28 24 50 50 50 28 0 50-22 50-50 0-26-22-48-50-48zM524 432c-28 0-50 22-50 50 0 26 22 50 50 50s50-24 50-50c0-28-22-50-50-50zM896 582c-28 0-50 24-50 50 0 28 22 50 50 50s50-22 50-50c0-26-22-50-50-50z" />
<glyph unicode="&#xe108;" d="M840 960h-656c-102 0-110-68-110-134v-756c0-66 8-134 110-134h656c102 0 110 68 110 134v756c0 66-8 134-110 134zM916 70c0-78-16-100-76-100h-656c-60 0-76 22-76 100v756c0 78 16 100 76 100h656c60 0 76-22 76-100v-756zM648 598h186c10 0 16 8 16 18v206c0 10-6 18-16 18h-186c-10 0-18-8-18-18v-206c0-10 8-18 18-18zM666 804h150v-172h-150zM184 806h372c10 0 18 8 18 16 0 10-8 18-18 18h-372c-8 0-16-8-16-18 0-8 8-16 16-16zM184 738h372c10 0 18 6 18 16s-8 18-18 18h-372c-8 0-16-8-16-18s8-16 16-16zM184 666h372c10 0 18 8 18 18s-8 16-18 16h-372c-8 0-16-6-16-16s8-18 16-18zM836 506h-648c-10 0-18-8-18-18v-428c0-8 8-16 18-16h648c8 0 16 8 16 16v428c0 10-8 18-16 18zM818 472v-298l-66 66c-6 8-32 38-62 36-18 0-36-14-48-26l-16 18c-6 6-38 44-72 42-28-2-58-32-68-42l-42 42c-6 10-44 52-84 50s-80-48-84-52l-72-72v236zM204 78v110c2 2 2 2 4 2l92 94c12 14 42 42 62 42 20 2 46-24 56-38 0 0 0 0 2 0l54-56c8-6 18-6 24 0l10 10c10 10 34 32 48 34 14 0 34-18 42-30 2 0 2-2 2-2l30-30c2-2 8-4 12-4s10 2 12 6c14 14 30 26 38 26 10 0 26-14 34-24 2 0 2-2 2-2l88-88c0 0 2 0 2 0v-50h-614z" />
<glyph unicode="&#xe109;" d="M908 558v0c4 0 10 2 12 6 4 2 6 8 6 12-2 4-2 6-2 10 0 0 0 0 0 0-12 120-214 216-462 216s-450-96-460-216c0 0 0 0 0 0-2-6-2-12-2-16 0-12 0-154 0-166 0-128 204-226 462-226 10 0 18 8 18 16v364h428c0 0 0 0 0 0zM446 212c-224 4-412 90-412 192 0 6 0 46 0 84 0 0 2 0 2 0 4-4 6-8 12-14 0 0 2 0 2-2 4-4 8-6 12-10 0-2 2-2 2-4 6-4 10-8 16-10 2-2 2-2 4-4 4-2 8-6 14-8 2-2 2-2 4-4 6-4 12-6 18-10 2 0 2-2 4-2 6-2 12-6 18-8 0-2 2-2 4-2 8-4 14-8 22-10 0 0 2 0 2 0 6-4 14-6 22-8 2-2 4-2 6-2 14-6 32-10 50-16 2 0 4 0 6 0 8-2 16-4 24-6 2 0 2 0 2-2 10 0 18-2 28-4 2 0 4 0 8-2 8 0 16-2 24-2 2-2 2-2 4-2 10 0 20-2 30-2 2 0 4-2 8-2 8 0 16 0 24-2 2 0 4 0 6 0 10 0 20 0 30 0 2 0 2 0 4 0v-138zM462 592c-8 0-16-8-16-16v-192c-2 0-2 0-2 0-4 0-8 0-10 0-4 0-8 0-12 0s-6 0-10 0c-4 2-8 2-10 2-4 0-8 0-10 0-4 0-8 0-12 2-2 0-6 0-10 0-2 0-6 0-10 2-2 0-6 0-10 0-2 0-6 2-10 2-2 0-6 0-10 2-2 0-6 0-10 0-2 2-6 2-8 2-4 0-8 2-10 2-4 0-6 2-10 2-2 0-6 2-10 2-2 0-6 2-8 2-4 0-6 2-10 2-2 0-6 2-8 2-4 0-6 2-10 2-2 2-4 2-8 2-2 2-6 2-8 4-4 0-6 2-8 2-4 0-6 2-10 2-2 2-4 2-8 4-2 0-4 2-8 2-2 2-4 2-8 4-2 0-4 2-8 2-2 2-4 2-6 4-2 0-6 2-8 2-2 2-4 2-6 4-4 0-6 2-8 4-2 0-4 2-6 2-4 2-6 2-8 4-2 0-4 2-6 4-2 0-4 2-6 4-2 0-4 2-6 2-2 2-4 4-8 4 0 2-2 2-4 4s-4 2-6 4c-2 2-4 2-6 4s-4 2-6 4c0 2-2 2-4 4s-4 2-4 4-4 2-6 4c0 2-2 2-4 4s-2 2-4 4-2 4-4 4c0 2-2 4-4 4 0 2-2 4-2 6-2 0-4 2-4 4-2 2-2 2-4 4 0 2 0 4-2 4 0 2-2 4-2 6-2 0-2 2-2 4-2 2-2 4-2 4-2 2-2 4-2 4 0 2-2 4-2 6s0 2 0 4c-2 2-2 4-2 6s0 2 0 4-2 6-2 10c0 2 2 4 2 6 0 0 0 0 0 0s0 0 0 0c8 102 198 186 426 186 220 0 406-78 426-176h-426zM1024 494c0 8-8 16-18 16h-444c-10 0-18-8-18-18v-380c0-10 8-18 18-18 258 0 462 100 462 226 0 12 0 156 0 166 0 2 0 4 0 8zM988 476c0 0 0-2 0-2-2-4-4-10-6-14 0-2 0-2 0-4-2-4-6-8-8-14-2 0-2-2-2-2-4-4-6-10-12-14 0-2 0-2 0-2-6-6-10-10-14-14-2 0-2-2-2-2-6-4-12-10-18-14 0 0 0 0 0 0-6-4-12-8-20-14 0 0 0 0-2 0-6-4-14-8-22-12 0 0-2-2-2-2-8-4-16-8-24-10 0-2-2-2-4-2-8-4-16-8-24-10-2 0-2-2-4-2-8-2-18-6-28-8 0 0-2-2-2-2-20-6-42-10-64-16 0 0-2 0-2 0-10-2-22-4-32-6-2 0-4 0-4 0-12-2-22-2-34-4-2 0-2 0-4 0-12-2-22-2-34-4-2 0-4 0-6 0-10 0-22 0-34-2 0 0-2 0-2 0v176zM990 320c0-100-188-186-412-190v136c2 0 2 0 4 0 10 0 20 2 30 2 2 0 4 0 6 0 8 0 16 2 24 2 4 0 6 0 8 0 10 2 20 2 30 4 0 0 2 0 4 0 8 2 16 2 24 4 4 0 6 0 8 2 10 0 18 2 28 4 0 0 0 0 2 0 8 2 16 4 24 6 2 0 4 2 6 2 10 2 18 4 26 6 0 0 0 0 0 0 8 4 16 6 24 8 2 2 4 2 6 2 8 4 14 6 22 8 0 0 2 0 2 2 8 2 14 6 22 8 2 2 4 2 4 2 6 4 12 6 18 10 2 0 2 0 4 2 6 2 12 6 18 10 2 0 2 2 4 2 6 4 10 6 14 10 2 0 2 2 4 2 6 4 10 8 16 12 0 2 2 2 2 2 4 4 8 8 12 12 0 0 2 2 2 2 4 4 8 8 12 14 0 0 2 0 2 0 0-40 0-80 0-86z" />
<glyph unicode="&#xe10a;" d="M512 960c-282 0-512-230-512-512s230-512 512-512c282 0 512 230 512 512s-230 512-512 512zM512-30c-264 0-478 214-478 478s214 478 478 478c264 0 478-214 478-478s-214-478-478-478zM512 874c-236 0-426-190-426-426s190-426 426-426c236 0 426 190 426 426s-190 426-426 426zM512 56c-216 0-392 176-392 392s176 392 392 392c216 0 392-176 392-392s-176-392-392-392zM720 684l-192-192c-14 4-32 0-44-10-16-18-16-44 0-60 8-8 20-14 32-14 4 0 8 2 12 4l148-148c2-4 8-6 12-6s8 2 12 6c6 6 6 16 0 24l-146 146c2 6 4 12 4 18s-2 12-4 16l190 192c8 6 8 18 0 24-6 6-16 6-24 0z" />
<glyph unicode="&#xe111;" d="M946 700h-330c-32 10-68 16-104 16-22 0-42-2-62-6-14 28-40 46-68 46h-64v30c0 20-16 36-36 36h-122c-18 0-34-16-34-36v-30h-48c-42 0-78-42-78-92v-496c0-44 36-78 78-78h338c30-10 62-16 96-16s66 6 96 16h338c44 0 78 34 78 78v454c0 42-36 78-78 78zM160 786c0 0 0 2 0 2h122c2 0 2-2 2-2v-30h-124zM78 124c-24 0-44 20-44 44v496c0 32 20 58 44 58h64c0 0 0 0 0 0s0 0 0 0h158c0 0 0 0 2 0 0 0 0 0 0 0h80c12 0 24-8 32-20-128-42-224-164-224-306 0-116 62-216 152-272zM432 120c-2 2-6 4-8 4h-2c-114 38-196 144-196 272 0 158 128 286 286 286s286-128 286-286c0-128-82-236-198-272-2-2-4-2-6-4-26-6-54-12-82-12s-54 4-80 12zM990 168c0-24-20-44-44-44h-264c90 56 150 156 150 272 0 112-58 212-146 268h260c24 0 44-18 44-42zM710 396c0 108-88 194-196 194s-196-86-196-194c0-108 88-196 196-196s196 88 196 196zM352 396c0 88 72 160 162 160 88 0 160-72 160-160 0-90-72-162-160-162-90 0-162 72-162 162z" />
<glyph unicode="&#xe11c;" d="M1006 246c-8 0-16-8-16-18v-204c0-12-4-20-12-26-6-6-14-8-22-8h-888c-10 0-20 4-26 12-6 6-8 14-8 22v204c0 10-8 18-16 18-10 0-18-8-18-18v-204c0-18 6-32 16-44 12-16 30-24 52-24h888c16 0 32 6 42 14 18 14 26 32 26 54v204c0 10-8 18-18 18zM500 142c2 0 2 0 4 0 0-2 0-2 2-2s4-2 6-2c2 0 4 2 6 2 0 0 2 0 2 2 2 0 2 0 2 0 8 8 192 160 260 230 8 6 8 18 0 24-6 6-18 6-24 0-52-52-174-156-228-204v732c0 10-8 16-18 16s-18-6-18-16v-732c-54 48-176 152-228 204-6 8-18 8-24 0-8-6-8-16 0-24 68-68 252-222 258-230z" />
<glyph unicode="&#xe11d;" d="M956-44h-888c-22 0-40 8-52 24-10 12-16 26-16 44v204c0 10 8 18 18 18 8 0 16-8 16-18v-204c0-8 2-16 8-22 6-8 16-12 26-12h888c8 0 16 2 22 8 8 6 12 14 12 26v204c0 10 8 18 16 18 10 0 18-8 18-18v-204c0-22-8-40-26-54-10-8-26-14-42-14zM770 678c-4 0-8 2-12 4-58 60-204 184-246 220-42-36-188-160-246-218-6-8-18-8-24 0-8 6-8 16 0 24 68 68 252 222 260 228 6 6 14 6 22 0 6-6 190-160 258-228 8-8 8-18 0-26-2-2-8-4-12-4zM512 138c-10 0-18 8-18 18v768c0 10 8 16 18 16s18-6 18-16v-768c0-10-8-18-18-18z" />
<glyph unicode="&#xe121;" d="M858 386c-8 0-16-6-16-16v-312h-226v210c0 8-8 16-16 16h-178c-10 0-18-8-18-16v-210h-224v312c0 10-8 16-18 16s-18-6-18-16v-330c0-8 8-16 18-16h260c8 0 16 8 16 16v210h144v-210c0-8 8-16 18-16h258c10 0 18 8 18 16v330c0 10-8 16-18 16zM1020 372l-496 496c-6 6-18 6-24 0l-494-496c-8-6-8-18 0-24 2-4 6-4 12-4 4 0 8 0 12 4l482 482 482-482c8-6 18-6 26 0 6 6 6 18 0 24z" />
<glyph unicode="&#xe124;" d="M512 960c-282 0-512-230-512-512s230-512 512-512c282 0 512 230 512 512s-230 512-512 512zM512-30c-264 0-478 214-478 478s214 478 478 478c264 0 478-214 478-478s-214-478-478-478zM526 184c-6-6-10-14-10-24 0-12 6-20 10-24 6-6 14-8 22-8s16 4 22 8c6 4 10 12 10 24 0 10-2 18-8 24-12 12-34 12-46 0zM548 158c0 0 0 0 0 0v0c0 0-2 2-2 2s2 2 2 2v0 0c2 0 2-2 2-2s-2-2-2-2zM636 790c-38 18-80 28-128 28-52 0-98-12-138-32-38-22-70-50-90-84-20-32-32-66-32-100 0-8 8-16 18-16 8 0 16 8 16 16 0 28 10 56 26 82 18 28 44 52 78 72 34 18 76 28 122 28 42 0 80-8 114-24 32-16 56-36 74-64 16-26 26-54 26-84 0-24-6-44-16-62-10-20-22-36-34-48-16-14-42-40-80-74-12-10-22-20-28-28-8-8-12-16-16-24-4-6-8-14-10-20 0-2-18-112 0-124l10 16h16c0 8 4 84 8 98 0 4 2 10 6 16 2 4 6 10 12 16 6 8 14 16 24 24 40 36 66 60 82 74 16 16 30 36 40 58 14 22 20 48 20 78 0 38-12 72-32 104s-50 56-88 74z" />
<glyph unicode="&#xe125;" d="M1018 836c-8 6-18 4-24-4l-562-730-404 392c-6 6-16 6-24 0-6-6-6-18 2-24l408-398c2-4 4-8 8-12 2-2 6-4 10-4 0 0 2 2 2 2 2 0 2-2 4-2 4 0 8 2 12 6s6 8 4 14l566 736c6 8 4 18-2 24z" />
<glyph unicode="&#xe126;" d="M536 448l482 482c8 8 8 18 0 24-6 8-16 8-24 0l-482-482-482 482c-8 8-18 8-24 0-8-6-8-16 0-24l482-482-482-482c-8-8-8-18 0-26 2-2 6-4 12-4 4 0 8 2 12 4l482 484 482-484c4-2 8-4 12-4 6 0 10 2 12 4 8 8 8 18 0 26z" />
<glyph unicode="&#xe129;" d="M886 790h-516l-74 66c-4 4-8 4-12 4h-230c-30 0-54-24-54-54v-754c0-8 8-16 18-16h988c10 0 18 8 18 16v600c0 76-62 138-138 138zM54 826h224l74-66c2-2 6-4 10-4h524c54 0 98-40 104-92h-956v142c0 12 10 20 20 20zM34 70v560h956v-560z" />
<glyph unicode="&#xe12a;" d="M836 612c-10 0-16-6-16-16v-626h-782v782h616c10 0 16 6 16 16s-6 18-16 18h-632c-10 0-18-8-18-18v-814c0-10 8-18 18-18h814c10 0 18 8 18 18v642c0 10-8 16-18 16zM1014 880l-74 74c-2 4-6 6-12 6-4 0-8-2-12-6l-468-468c0 0-2-2-2-4l-66-142c-4-6-2-14 4-18 2-4 8-6 12-6 2 0 4 0 6 2l140 68c2 0 4 2 4 2l468 468c8 8 8 18 0 24zM524 414l-94-44 44 94 454 454 50-50z" />
<glyph unicode="&#xe12b;" d="M762-64h-500c-8 0-16 6-16 16l-84 846c0 4 2 10 4 14 4 2 8 4 14 4h664c6 0 10-2 14-4 2-4 4-10 4-14l-84-846c0-10-8-16-16-16zM278-30h468l80 812h-628zM510 40c-10 0-16 6-16 16v646c0 10 6 18 16 18s18-8 18-18v-646c0-10-8-16-18-16zM630 40c0 0 0 0 0 0-10 0-16 8-16 16l28 648c0 10 8 16 18 16s18-8 16-18l-28-646c0-10-8-16-18-16zM388 40c-10 0-18 6-18 16l-28 646c-2 10 6 18 16 18 8 0 16-6 18-16l28-648c0-8-6-16-16-16 0 0 0 0 0 0zM686 786c-10 0-16 6-16 16v56c0 38-32 68-70 68h-178c-38 0-68-30-68-68v-56c0-10-8-16-18-16s-16 6-16 16v56c0 56 46 102 102 102h178c58 0 104-46 104-102v-56c0-10-8-16-18-16z" />
<glyph unicode="&#xe130;" d="M104 218c6-2 12-2 18 4 10 8 18 18 26 26 52 60 80 82 104 82 30 0 64-32 118-84l2-2c0-2 28-44 62-44v0c0 0 0 0 2 0 22 0 44 20 64 56l2 2c34 62 74 98 108 98h2c22-2 48-26 72-74v-2c2 0 22-50 56-54 20-2 44 14 70 48l116 126c4 2 6 6 6 12v124c0 8-4 14-12 16-4 2-62 26-158 44v166c0 10-4 20-12 28 10 10 18 24 20 40 4 64-60 114-62 116-6 4-12 4-18 0-6-2-10-8-10-16 0-6 0-26-4-36-2-8-6-14-8-20-8-12-14-24-14-42s8-32 20-44c-8-6-12-16-12-26v-150c-28 4-60 6-92 8v152c0 10-4 20-12 28 12 10 20 24 20 42 6 64-58 112-60 114-6 4-14 6-18 2-6-4-10-10-10-16s0-26-4-38c-2-6-6-12-8-18-8-12-14-26-14-44 0-16 6-30 18-42-8-8-12-18-12-28v-152c-34 0-68-4-102-6v148c0 10-2 20-10 26 12 10 18 26 20 42 6 64-58 114-62 116-4 4-12 4-18 0-6-2-8-8-8-16 0-6 0-26-4-36-2-8-6-14-10-20-6-12-14-24-14-42 0-16 8-32 18-42-8-8-10-18-10-28v-164c-58-12-112-26-166-46-6-2-12-8-12-16v-302c0-6 4-12 12-16zM698 858c4 6 8 14 10 24 2 4 2 8 4 12 12-16 24-38 22-62 0-12-8-24-22-24s-24 10-24 24c0 8 4 16 10 26zM696 762c0 2 0 6 16 6s16-4 16-6v-160c-10 2-20 4-32 6zM506 870c4 6 8 14 12 24 2 2 2 6 4 10 12-16 24-36 22-60 0-12-8-24-24-24-12 0-22 10-22 22 0 10 4 18 8 28zM504 772c0 2 0 8 16 8s16-6 16-8v-152c-10 0-18 2-28 2 0 0-2-2-4-2zM306 858c4 6 8 14 12 24 2 4 2 8 2 12 14-16 26-38 24-62 0-12-10-24-24-24-12 0-24 10-24 24 0 8 6 16 10 26zM304 762c0 2 0 6 14 6 16 0 16-4 16-6v-154c-10 0-20-2-30-4v158zM126 524c50 18 102 30 154 40 2 0 4 0 6 0 4 0 10 2 12 4 16 4 30 6 46 8 2-2 4-2 8-2s8 2 10 4c48 6 98 8 146 8 60 0 114-4 164-10 2-2 4-2 8-2 2 0 4 0 4 0 18-2 36-4 52-8 2-2 6-2 8-2s2 0 4 0c74-14 128-32 150-40v-106l-112-120-4-4c-20-28-34-34-38-34-8 0-22 18-28 34l-2 4c-30 60-64 90-102 92h-2c-48 0-96-40-138-114l-2-2c-16-32-30-40-36-40v0c-10 0-26 16-34 28l-2 2c0 2-2 4-2 4l-2 2c-60 58-100 94-142 94-38 0-74-32-126-88v248zM932 32v304c0 8-4 14-12 16-6 4-14 2-18-4l-78-82c0-2-2-2-2-2-28-40-58-58-86-54-42 4-64 58-66 66-18 32-38 50-60 50 0 0 0 0 0 0-40 0-82-56-96-78-26-48-54-76-78-76-2 0-2 0-2 0-36 0-64 44-74 58l-2 4c0 0-2 2-2 2-50 48-80 66-104 64-26-2-52-26-94-66-16-14-36-34-60-54-4-4-6-8-6-12v-134c0-8-2-58 26-78 26-18 284-20 394-20 8 0 16 0 24 0 140 0 348 2 372 20 24 16 24 60 24 76zM890-16c-16-8-154-14-376-14-224 0-360 8-376 14-10 6-12 30-12 46 0 0 0 0 0 2v128c22 18 40 36 56 50 32 30 58 56 72 56 18 2 62-38 76-54h2c12-18 48-74 104-74 38 2 76 32 108 94 18 28 50 60 66 60 0 0 0 0 0 0 6 0 16-8 28-30 6-14 34-78 94-86 42-6 80 16 118 66l48 52v-262c0 0 0-2 0-2s0 0 0 0c0-20-4-44-8-46z" />
<glyph unicode="&#xe131;" d="M824 606c0 350-312 354-326 354-12 0-324-4-324-354 0-22 8-216 274-382-22-38-22-38-22-38-4-6-4-12 0-18 4-4 8-8 14-8h42v-206c0-10 6-18 16-18s18 8 18 18v206h42c0 0 0 0 0 0 10 0 18 8 18 18 0 4-2 8-4 12-4 4-8 12-22 34 266 166 274 360 274 382zM528 252h-2c-6 0-12-4-16-8-2-6-2-12 0-18 8-14 14-24 18-30h-58c4 6 10 16 18 30 2 6 2 12 0 18-4 4-8 8-14 8h-4c-254 154-260 334-260 354-2 316 276 320 290 320 12 0 290-4 290-320 0-20-8-200-262-354zM506 884c-2 0-170 6-242-190-2-8 2-18 10-22 2 0 4 0 6 0 8 0 14 4 16 10 64 172 202 168 208 166 10 0 18 8 18 16 0 10-6 18-16 20z" />
<glyph unicode="&#xe136;" d="M964 960h-904c-34 0-60-26-60-60v-904c0-34 26-60 60-60h904c34 0 60 26 60 60v904c0 34-26 60-60 60zM990-4c0-14-12-26-26-26h-904c-14 0-26 12-26 26v904c0 14 12 26 26 26h904c14 0 26-12 26-26zM510 558c-64 0-114-52-114-114s50-114 114-114c62 0 112 52 112 114s-50 114-112 114zM510 366c-44 0-80 34-80 78s36 80 80 80c42 0 78-36 78-80s-36-78-78-78zM510 484c-22 0-40-18-40-40s18-40 40-40c22 0 40 18 40 40s-18 40-40 40zM510 438c-4 0-6 2-6 6s2 6 6 6c2 0 6-2 6-6s-4-6-6-6zM100 78c-26 0-48-22-48-46 0-26 22-48 48-48 24 0 46 22 46 48 0 24-22 46-46 46zM100 18c-8 0-14 6-14 14 0 6 6 12 14 12 6 0 12-6 12-12 0-8-6-14-12-14zM206 78c-26 0-48-22-48-46 0-26 22-48 48-48s46 22 46 48c0 24-20 46-46 46zM206 18c-8 0-12 6-12 14 0 6 4 12 12 12 6 0 12-6 12-12 0-8-6-14-12-14zM952 912h-106c-12 0-22-10-22-22v-104c0-12 10-22 22-22h6v-30c0-12 10-20 20-20h8v-70c-72 132-210 222-370 222-234 0-422-190-422-422s188-420 422-420c232 0 420 188 420 420 0 40-6 78-16 116v154h10c12 0 20 8 20 20v30h8c12 0 22 10 22 22v104c0 12-10 22-22 22zM510 58c-214 0-388 172-388 386s174 388 388 388c174 0 322-118 370-278v-56l-80-140-4 2c-6 8-20 8-26 0l-38-38c-8-8-8-20 0-28l38-36c4-4 8-6 12-6 6 0 12 2 14 6l38 38c8 6 8 20 0 26l-10 10 72 126c0-6 0-10 0-14 0-214-174-386-386-386zM800 308l-18-16-16 16 16 18zM938 798h-10c-10 0-18-8-18-18v-32h-6c-2 0-4 2-6 2-4 0-6-2-8-2h-4v32c0 10-6 18-16 18h-12v80h80v-80zM932 42h-182c-10 0-18-8-18-16 0-10 8-18 18-18h182c10 0 18 8 18 18 0 8-8 16-18 16z" />
<glyph unicode="&#xe13d;" d="M1020 466c-6 8-16 10-24 2l-148-124c-36 28-158 184-176 224l326 262c8 6 10 16 4 24-6 6-18 8-24 2l-334-266c-4-4-10-10-8-20 0-4 2-10 6-16l-18-6c-14-4-68-16-110-20 0 0 0 0 0 0-34 2-82 14-104 20-6 0-10 2-12 2s-4 0-6 0c4 6 6 10 6 14 2 12-6 18-8 20l-342 274c-8 6-18 4-24-4-6-6-4-18 2-24l336-268c-18-38-130-184-170-220 0 0-2 0-2 0s0-2 0-2c-2 0-2-2-4-2l-158 134c-8 6-18 4-24-2-6-8-6-18 2-24l168-142c0 0 6-4 12-4 2 0 4 2 8 2 2 0 2 2 4 2 14-18 28-34 40-48-16-18-18-42-4-62 2-4 6-8 10-10-4-6-8-14-10-22-4-14-2-30 6-42 12-16 30-22 46-22 0-10 4-18 10-26 16-24 48-26 68-14l10 6c2-2 2-6 4-8 10-14 24-22 38-22 10 0 16 2 24 6l74 44 76-44c6-4 14-6 22-6 14 0 30 8 38 22 2 2 4 6 4 8l10-6c20-12 52-10 70 14 4 8 8 16 8 26 16 0 34 6 46 22 12 20 10 46-4 64 4 2 8 6 10 10 14 20 12 44-4 62 14 14 28 32 44 52 0 0 0 2 0 2 2 0 4-2 6-2 2-2 6-2 8-2 6 0 10 2 14 4l156 132c8 8 8 18 2 24zM262 214c-6 8-4 14 0 20 8-6 18-12 26-18l-10-8c-6 0-14 2-16 6zM294 136c-6-4-20-6-26 4-2 4-2 8-2 14 2 6 6 10 10 14l16 10 28 16c14-8 26-14 36-20l-32-20c0 0 0 0 0 0s0 0 0 0zM346 86c-6-2-18-4-22 4-2 4-4 8-2 12 0 6 4 10 8 14l14 10 48 30 32-18-36-22c0 0 0-2 0-2s0 0 0 0zM424 70c-6-2-14-2-16 4-4 4-2 10 2 14l48 30 22-14zM768 214c-4-4-10-6-16-6l-216 146c-8 4-18 2-24-6-4-6-2-18 6-22l218-148c0 0 0 0 0 0s0 0 0 0l16-10c10-8 14-20 8-28-6-10-18-8-26-4l-16 10c-2 0-2 0-2 0l-236 156c-8 6-18 4-24-4-4-8-2-18 6-24l236-158c4-4 6-6 8-8 2-6 2-12 0-18-6-8-18-6-22-4l-44 28c0 0 0 0 0 2l-212 140c-8 6-18 4-24-4s-4-20 4-24l212-140c2-4 4-10 2-14-4-6-12-6-16-4l-78 46c-4 2-6 4-10 6l-116 68c0 0 0 0 0 0h-2c0 0 0 2 0 2s-2 0-2 0c-6 2-82 38-124 76-14 14-32 34-50 58 44 46 120 142 156 200 2-4 6-8 10-10 2 0 6 0 12-2 8-2 22-6 36-8l-54-38-8-8c-8-4-10-12-6-20 2-2 14-26 38-32 4-2 8-2 14-2 10 0 22 2 36 10 2 2 16 4 44 4l28-24c2 0 2 0 2-2 18-10 32-20 34-22l190-130c10-6 18-18 12-28zM806 328c-14-20-28-36-42-50l-178 122c-2 2-14 10-28 18 8 0 12-2 14-2 8-6 18-2 22 6 6 8 4 18-4 22-6 4-18 12-76 10-58 2-70-6-74-10-8-4-16-6-22-4-4 0-6 2-8 4l54 38c2 2 2 0 4 2 0 0 6 4 26 6 42 4 124 22 140 26 0 0 0 0 2 0l18 6c2 0 2 2 4 2 36-56 108-148 152-192-2-2-2-2-4-4z" />
<glyph unicode="&#xe13e;" d="M968 522h-98v94c0 42-12 74-34 90-22 18-48 16-64 14-2 4-8 6-14 6l-66-8c-8-2-16-6-18-14s0-16 6-22l66-66c4-4 10-6 14-6 6 0 12 2 16 8 2 2 4 8 6 12l6 58c8 0 18-2 28-8 14-12 20-32 20-64v-94h-450v20h156c22 0 40 18 40 40v230c0 22-18 40-40 40h-342c-22 0-40-18-40-40v-230c0-22 18-40 40-40h150v-20h-294c-32 0-56-24-56-56 0-30 24-54 56-54h10v-382c0-10 8-18 18-18s16 8 16 18v382h478v-64c0-10 6-18 16-18h324v-300c0-10 6-18 16-18s18 8 18 18v382h16c32 0 56 24 56 54 0 32-24 56-56 56zM750 660l-26 28 30 2zM200 818h342c2 0 6-2 6-6v-172h-354v172c0 4 2 6 6 6zM194 582v24h354v-24c0-2-4-6-6-6h-342c-4 0-6 4-6 6zM918 364h-306v48h306zM968 446h-370c-2 0-2 0-4 0 0 0-2 0-2 0h-536c-12 0-22 10-22 20 0 12 10 22 22 22h912c12 0 22-10 22-22 0-10-10-20-22-20z" />
<glyph unicode="&#xe14a;" d="M1016 302c-6 8-12 14-20 18 14 20 18 48 4 70l-156 256c-8 12-22 22-38 26-14 2-30 0-44-8l-52-34c-2 4-2 6-4 10l-108 176c-8 10-18 18-30 20-12 4-24 2-34-6l-172-110c-4-2-6-4-8-8l-114 184c-16 26-50 34-76 20l-134-76c-28-16-38-52-22-78 6-14 18-24 34-28 14-4 30-4 42 4l88 50 382-618c-10-18-14-38-14-60 0-76 60-136 134-136 70 0 130 56 134 126l190 122c26 18 34 52 18 80zM782 636c4 2 12 4 18 2s10-6 14-10l156-256c8-12 4-28-6-36l-26-16c0 0-2 0-2 0l-166-108-4-2c-24 22-56 36-92 36-10 0-22 0-32-4l-120 196c0 0 0 0 0 2-8 12-4 26 8 34l108 68 52 36c0 0 0 0 2 0zM378 676c-4 4-2 12 2 16l172 110c4 2 6 2 10 2 2-2 4-4 6-6l108-176c4-6 2-12-4-16l-58-38-114-72c-2-2-6-2-8-2s-6 2-6 6c-2 0-2 0-2 2l-106 168c0 2 0 4 0 6zM192 820c-4 8-14 10-22 6l-102-58c-6-2-12-4-18-2s-10 6-12 12c-8 10-4 26 8 32l134 76c12 6 24 2 32-8l398-648c-14-8-26-18-36-30zM674 8c-56 0-100 46-100 102 0 42 26 80 62 94 4 0 6 2 8 4 2 0 2 0 2 0 8 4 18 4 28 4 56 0 100-46 100-102s-44-102-100-102zM980 250l-174-110c-4 16-10 30-18 44l168 108c4 2 10 4 16 2s10-4 14-10c8-12 4-26-6-34zM674 170c-32 0-58-28-58-60 0-34 26-60 58-60s58 26 58 60c0 32-26 60-58 60zM674 84c-14 0-24 12-24 26s10 26 24 26c14 0 24-12 24-26s-10-26-24-26z" />
<glyph unicode="&#xe14f;" d="M948 946h-872c-42 0-76-36-76-78v-582c0-42 34-76 76-76h416v-72l-158-158c-8-6-8-18 0-24 2-4 6-6 12-6 4 0 8 2 12 6l152 152 150-152c4-4 8-6 12-6 6 0 10 2 12 6 8 6 8 18 0 24l-158 158v72h422c42 0 76 34 76 76v582c0 42-34 78-76 78zM990 286c0-24-18-42-42-42h-872c-24 0-42 18-42 42v582c0 24 18 42 42 42h872c24 0 42-18 42-42zM568 604c-2 0-2 0-2 0-2 0-4 0-6 0h-196c-10 0-18-6-18-16v-168c0-10 8-18 18-18 120 0 214 48 214 110 0 6 0 68 0 74 0 0 0 2 0 2-2 8-6 12-10 16zM538 570c-18-28-78-54-158-58v58zM542 512c0-34-64-70-162-74v40c70 4 128 22 162 50 0-8 0-16 0-16zM522 650c0 2 0 2 0 4-6 60-98 104-214 104s-208-44-212-104c0-2 0-4 0-4 0-2 0-2 0-2s-2-2-2-2c0-4 2-68 2-72 0-62 92-110 212-110 10 0 18 8 18 16v152h180c8 0 16 8 16 18zM130 574c0 0 0 6 0 16 34-28 92-48 162-50v-42c-96 4-162 42-162 76zM308 666c-8 0-16-8-16-16v-76c-96 4-162 42-162 76v2c2 34 74 72 178 72 90 0 156-28 174-58zM918 714h-238c-8 0-16-8-16-18 0-8 8-16 16-16h238c10 0 18 8 18 16 0 10-8 18-18 18zM918 518h-238c-8 0-16-8-16-16 0-10 8-18 16-18h238c10 0 18 8 18 18 0 8-8 16-18 16zM918 618h-238c-8 0-16-8-16-18s8-16 16-16h238c10 0 18 6 18 16s-8 18-18 18z" />
<glyph unicode="&#xe153;" d="M512 858c-154 0-290-138-304-306 0-4 2-10 6-14 4-2 8-4 14-4 70 6 174 10 284 10s214-4 286-10c0 0 0 0 0 0 6 0 10 2 12 4 4 4 6 10 6 14-14 168-150 306-304 306zM512 578c-102 0-196-2-266-8 20 142 136 254 266 254s246-112 268-254c-70 6-166 8-268 8zM918 530c-4 234-188 430-406 430-216 0-400-196-404-426-2-2-2-4-2-8v-490c0-56 46-100 102-100h608c56 0 102 44 102 100v490c0 2 0 2 0 4zM884 36c0-36-30-66-68-66h-608c-38 0-68 30-68 66v488c2 2 2 4 2 6 2 214 172 396 370 396 200 0 370-182 372-400 0 0 0 0 0 0zM516 432c-58 0-104-46-104-104 0-38 20-74 54-92v-68c0-26 22-48 48-48s48 22 48 48v68c34 16 56 52 56 92 0 58-46 104-102 104zM538 262c-6-2-10-8-10-16v-78c0-8-6-14-14-14s-14 6-14 14v80c0 6-4 12-10 16-28 10-44 36-44 64 0 38 30 70 70 70 38 0 68-32 68-70 0-30-18-56-46-66z" />
<glyph unicode="&#xe155;" d="M1008 500c-2 2-2 4-6 6-212 258-438 272-480 272-4 0-8 0-10 0s-6 0-10 0c-42 0-268-14-482-274-2 0-2-2-2-2-12-18-18-36-18-54s6-36 18-54c0 0 0 0 2-2 214-260 440-274 482-274 6 0 8 0 10 0s4 0 10 0c42 0 268 14 482 274 2 0 2 2 2 2 12 18 18 36 18 54 0 16-6 34-16 52zM978 414c0 0 0-2 0-2-204-248-416-260-456-260-6 0-8 0-8 0-2 0-2 0-2 0s0 0-2 0c0 0-2 0-8 0-40 0-252 12-456 260 0 0 0 2 0 2-8 10-12 22-12 34s4 24 12 34c0 0 0 2 0 2 204 248 416 260 456 260 6 0 8 0 8 0 2 0 2 0 4 0 0 0 4 0 8 0 40 0 252-12 456-260 0 0 0-2 0-2 8-10 12-22 12-34s-4-24-12-34zM516 690c-134 0-242-110-242-244s108-242 242-242c134 0 242 108 242 242s-108 244-242 244zM516 238c-116 0-208 94-208 208 0 116 92 210 208 210s208-94 208-210c0-114-92-208-208-208zM516 526c-44 0-78-36-78-80s34-80 78-80c44 0 80 36 80 80s-36 80-80 80zM516 400c-24 0-44 20-44 46 0 24 20 46 44 46 26 0 46-22 46-46 0-26-20-46-46-46z" />
<glyph unicode="&#xe159;" d="M402 454c-36 0-68-30-68-70 0-38 32-70 68-70 38 0 68 32 68 70 0 40-30 70-68 70zM420 404c0-4-6-4-6 0s2 4 4 4c2 0 2-2 2-4zM402 348c-18 0-34 16-34 36 0 12 6 22 14 28-2-2-2-4-2-8 0-20 16-38 38-38 6 0 10 2 14 4-4-14-16-22-30-22zM622 454c-38 0-68-30-68-70 0-38 30-70 68-70 36 0 66 32 66 70 0 40-30 70-66 70zM640 404c0-4-6-4-6 0s2 4 4 4c0 0 2 0 2-4zM622 348c-20 0-34 16-34 36 0 12 4 22 12 28 0-2 0-4 0-8 0-20 16-38 38-38 4 0 10 2 14 4-6-14-18-22-30-22zM980 482c-10 226-210 478-464 478-250 0-436-234-456-454-10-24-16-54-16-82 0-88 52-160 118-160 2 0 4 0 8 0 64-128 198-210 342-210 146 0 280 82 344 210 4 0 6 0 8 0 24 0 48 10 68 28-28-208-190-248-242-256-12 12-50 24-78 24-10 0-20 0-30-4-24-6-44-18-58-32-18-18-24-36-20-54 8-20 32-34 66-34 16 0 32 2 48 8 38 12 58 40 68 58 54 6 284 54 284 354 0 2 0 2 0 2 14 54 10 122 10 124zM606-24c-12-4-24-6-36-6-20 0-32 6-32 10-2 4 2 12 10 20 10 10 26 18 44 24 6 2 12 2 20 2 16 0 34-6 44-10-8-12-22-32-50-40zM800 534l-158 144c-4 4-10 6-14 4-6 0-10-4-12-8 0 0-54-84-190-146-68-32-140-50-194-60 0 24-2 46-6 62-10 36-32 54-64 54-2 0-4 0-6 0 80 144 218 234 360 234 158 0 290-112 360-234-4 0-8 0-12 0-32 0-52-16-64-50zM512 88c-130 0-250 74-310 188 10 10 18 22 24 42 6 26 6 62 6 102v8c0 2 0 4 0 6 58 10 134 30 208 62 112 50 170 114 194 144l160-144c-2-22-2-44-2-68v-8c0-40 0-76 8-102 4-20 12-34 24-42-60-116-180-188-312-188zM864 298c-14 0-26 4-32 28s-6 58-6 94v8c0 36 0 70 6 94s18 28 32 28c12 0 26-4 38-14 6-4 14-4 20 0 6 6 8 14 6 20-68 148-220 296-412 296-168 0-328-114-410-290-4-6-2-14 4-20 6-4 14-4 20 0 10 6 20 8 32 8 14 0 24-4 30-28s6-58 6-94v-8c0-36 0-70-6-94s-16-28-30-28c-46 0-84 58-84 126 0 26 6 50 14 70 2 2 2 4 2 6 16 206 190 426 422 426 236 0 420-234 430-446 0-26 0-104-20-140-16-26-40-42-62-42z" />
<glyph unicode="&#xe15f;" d="M312 54h-12c-14 0-26-12-26-28v-10c0-8 2-14 8-20 4-4 12-8 18-8h12c14 0 26 12 26 28v10c0 8-2 14-8 20-4 4-12 8-18 8zM254 864h100c10 0 18 8 18 18 0 8-8 16-18 16h-100c-10 0-16-8-16-16 0-10 6-18 16-18zM998 336l-132 468c0 0 0 2 0 2-2 2-2 2-2 4 0 0 0 0 0 0-2 2-4 2-6 4 0 0-2 0-4 2 0 0 0 0-2 0s-4 0-6 0l-262-74v104c0 74-40 114-114 114h-330c-74 0-114-40-114-114v-796c0-74 40-114 114-114h330c74 0 114 40 114 114v152l402 114c10 2 14 12 12 20zM948 340l-328 112 232 278 108-386zM564 232c-2 0-4 0-4 0l-162-46 200 238 292-100zM838 778l4-8-256-306-376 128-4 10zM562 436l-222-266-12-4-108 386zM140 926h330c54 0 80-26 80-80v-14c-4 2-6 4-10 4h-474c-2 0-4 0-6-2v12c0 54 24 80 80 80zM470-30h-330c-54 0-80 26-80 80v30c2 0 4 0 6 0h474c4 0 6 0 10 2v-32c0-54-26-80-80-80zM550 110c-4 2-6 4-10 4h-474c-2 0-4-2-6-2v692c2-2 4-2 6-2h474c4 0 6 2 10 4v-74l-368-102c-2 0-4-2-4-2-2 0-2-2-2-2-2 0-2 0-2 0-2-2-2-4-4-4 0 0 0 0 0-2 0 0 0-2-2-4 0-2 0-6 2-8l130-466c2-6 4-10 8-12 4 0 6-2 8-2s4 0 6 2l228 64z" />
</font>
</defs>
</svg>
